<?xml version="1.0" encoding="UTF-8" standalone="no"?><svg xmlns="http://www.w3.org/2000/svg" xmlns:xlink="http://www.w3.org/1999/xlink" contentScriptType="application/ecmascript" contentStyleType="text/css" height="471px" preserveAspectRatio="none" style="width:521px;height:471px;" version="1.1" viewBox="0 0 521 471" width="521px" zoomAndPan="magnify"><defs><filter height="300%" id="f87wnfn" width="300%" x="-1" y="-1"><feGaussianBlur result="blurOut" stdDeviation="2.0"/><feColorMatrix in="blurOut" result="blurOut2" type="matrix" values="0 0 0 0 0 0 0 0 0 0 0 0 0 0 0 0 0 0 .4 0"/><feOffset dx="4.0" dy="4.0" in="blurOut2" result="blurOut3"/><feBlend in="SourceGraphic" in2="blurOut3" mode="normal"/></filter></defs><g><!--class Registry--><rect fill="#FEFECE" filter="url(#f87wnfn)" height="281.1914" style="stroke: #A80036; stroke-width: 1.5;" width="491" x="13.5" y="181"/><ellipse cx="231.75" cy="197" fill="#ADD1B2" rx="11" ry="11" style="stroke: #A80036; stroke-width: 1.0;"/><path d="M234.7231,202.6431 Q234.1421,202.9419 233.5029,203.0913 Q232.8638,203.2407 232.1582,203.2407 Q229.6514,203.2407 228.3315,201.5889 Q227.0117,199.937 227.0117,196.8159 Q227.0117,193.6865 228.3315,192.0347 Q229.6514,190.3828 232.1582,190.3828 Q232.8638,190.3828 233.5112,190.5322 Q234.1587,190.6816 234.7231,190.9805 L234.7231,193.7031 Q234.0923,193.1221 233.4988,192.8523 Q232.9053,192.5825 232.2744,192.5825 Q230.9297,192.5825 230.2449,193.6492 Q229.5601,194.7158 229.5601,196.8159 Q229.5601,198.9077 230.2449,199.9744 Q230.9297,201.041 232.2744,201.041 Q232.9053,201.041 233.4988,200.7712 Q234.0923,200.5015 234.7231,199.9204 Z "/><text fill="#000000" font-family="sans-serif" font-size="12" lengthAdjust="spacingAndGlyphs" textLength="46" x="252.25" y="201.5352">Registry</text><line style="stroke: #A80036; stroke-width: 1.5;" x1="14.5" x2="503.5" y1="213" y2="213"/><line style="stroke: #A80036; stroke-width: 1.5;" x1="14.5" x2="503.5" y1="221" y2="221"/><ellipse cx="24.5" cy="232.9775" fill="#84BE84" rx="3" ry="3" style="stroke: #038048; stroke-width: 1.0;"/><text fill="#000000" font-family="sans-serif" font-size="11" lengthAdjust="spacingAndGlyphs" textLength="259" x="33.5" y="235.6348">Promise getAllRegistries(SecurityContext,string)</text><ellipse cx="24.5" cy="245.9326" fill="#84BE84" rx="3" ry="3" style="stroke: #038048; stroke-width: 1.0;"/><text fill="#000000" font-family="sans-serif" font-size="11" lengthAdjust="spacingAndGlyphs" textLength="271" x="33.5" y="248.5898">Promise getRegistry(SecurityContext,string,string)</text><ellipse cx="24.5" cy="258.8877" fill="#84BE84" rx="3" ry="3" style="stroke: #038048; stroke-width: 1.0;"/><text fill="#000000" font-family="sans-serif" font-size="11" lengthAdjust="spacingAndGlyphs" textLength="286" x="33.5" y="261.5449">Promise existsRegistry(SecurityContext,string,string)</text><ellipse cx="24.5" cy="271.8428" fill="#84BE84" rx="3" ry="3" style="stroke: #038048; stroke-width: 1.0;"/><text fill="#000000" font-family="sans-serif" font-size="11" lengthAdjust="spacingAndGlyphs" textLength="309" x="33.5" y="274.5">Promise addRegistry(SecurityContext,string,string,string)</text><ellipse cx="24.5" cy="284.7979" fill="#84BE84" rx="3" ry="3" style="stroke: #038048; stroke-width: 1.0;"/><text fill="#000000" font-family="sans-serif" font-size="11" lengthAdjust="spacingAndGlyphs" textLength="465" x="33.5" y="287.4551">void constructor(string,string,string,SecurityContext,ModelManager,Factory,Serializer)</text><ellipse cx="24.5" cy="297.7529" fill="#84BE84" rx="3" ry="3" style="stroke: #038048; stroke-width: 1.0;"/><text fill="#000000" font-family="sans-serif" font-size="11" lengthAdjust="spacingAndGlyphs" textLength="146" x="33.5" y="300.4102">Promise addAll(Resource[])</text><ellipse cx="24.5" cy="310.708" fill="#84BE84" rx="3" ry="3" style="stroke: #038048; stroke-width: 1.0;"/><text fill="#000000" font-family="sans-serif" font-size="11" lengthAdjust="spacingAndGlyphs" textLength="124" x="33.5" y="313.3652">Promise add(Resource)</text><ellipse cx="24.5" cy="323.6631" fill="#84BE84" rx="3" ry="3" style="stroke: #038048; stroke-width: 1.0;"/><text fill="#000000" font-family="sans-serif" font-size="11" lengthAdjust="spacingAndGlyphs" textLength="163" x="33.5" y="326.3203">Promise updateAll(Resource[])</text><ellipse cx="24.5" cy="336.6182" fill="#84BE84" rx="3" ry="3" style="stroke: #038048; stroke-width: 1.0;"/><text fill="#000000" font-family="sans-serif" font-size="11" lengthAdjust="spacingAndGlyphs" textLength="141" x="33.5" y="339.2754">Promise update(Resource)</text><ellipse cx="24.5" cy="349.5732" fill="#84BE84" rx="3" ry="3" style="stroke: #038048; stroke-width: 1.0;"/><text fill="#000000" font-family="sans-serif" font-size="11" lengthAdjust="spacingAndGlyphs" textLength="108" x="33.5" y="352.2305">Promise removeAll()</text><ellipse cx="24.5" cy="362.5283" fill="#84BE84" rx="3" ry="3" style="stroke: #038048; stroke-width: 1.0;"/><text fill="#000000" font-family="sans-serif" font-size="11" lengthAdjust="spacingAndGlyphs" textLength="94" x="33.5" y="365.1855">Promise remove()</text><ellipse cx="24.5" cy="375.4834" fill="#84BE84" rx="3" ry="3" style="stroke: #038048; stroke-width: 1.0;"/><text fill="#000000" font-family="sans-serif" font-size="11" lengthAdjust="spacingAndGlyphs" textLength="85" x="33.5" y="378.1406">Promise getAll()</text><ellipse cx="24.5" cy="388.4385" fill="#84BE84" rx="3" ry="3" style="stroke: #038048; stroke-width: 1.0;"/><text fill="#000000" font-family="sans-serif" font-size="11" lengthAdjust="spacingAndGlyphs" textLength="103" x="33.5" y="391.0957">Promise get(string)</text><ellipse cx="24.5" cy="401.3936" fill="#84BE84" rx="3" ry="3" style="stroke: #038048; stroke-width: 1.0;"/><text fill="#000000" font-family="sans-serif" font-size="11" lengthAdjust="spacingAndGlyphs" textLength="118" x="33.5" y="404.0508">Promise exists(string)</text><ellipse cx="24.5" cy="414.3486" fill="#84BE84" rx="3" ry="3" style="stroke: #038048; stroke-width: 1.0;"/><text fill="#000000" font-family="sans-serif" font-size="11" lengthAdjust="spacingAndGlyphs" textLength="107" x="33.5" y="417.0059">Promise find(string)</text><ellipse cx="24.5" cy="427.3037" fill="#84BE84" rx="3" ry="3" style="stroke: #038048; stroke-width: 1.0;"/><text fill="#000000" font-family="sans-serif" font-size="11" lengthAdjust="spacingAndGlyphs" textLength="117" x="33.5" y="429.9609">Promise query(string)</text><ellipse cx="24.5" cy="440.2588" fill="#84BE84" rx="3" ry="3" style="stroke: #038048; stroke-width: 1.0;"/><text fill="#000000" font-family="sans-serif" font-size="11" lengthAdjust="spacingAndGlyphs" textLength="107" x="33.5" y="442.916">Promise resolveAll()</text><ellipse cx="24.5" cy="453.2139" fill="#84BE84" rx="3" ry="3" style="stroke: #038048; stroke-width: 1.0;"/><text fill="#000000" font-family="sans-serif" font-size="11" lengthAdjust="spacingAndGlyphs" textLength="125" x="33.5" y="455.8711">Promise resolve(string)</text><!--class AssetRegistry--><rect fill="#FEFECE" filter="url(#f87wnfn)" height="112.7754" style="stroke: #A80036; stroke-width: 1.5;" width="506" x="6" y="8"/><ellipse cx="216.25" cy="24" fill="#ADD1B2" rx="11" ry="11" style="stroke: #A80036; stroke-width: 1.0;"/><path d="M219.2231,29.6431 Q218.6421,29.9419 218.0029,30.0913 Q217.3638,30.2407 216.6582,30.2407 Q214.1514,30.2407 212.8315,28.5889 Q211.5117,26.937 211.5117,23.8159 Q211.5117,20.6865 212.8315,19.0347 Q214.1514,17.3828 216.6582,17.3828 Q217.3638,17.3828 218.0112,17.5322 Q218.6587,17.6816 219.2231,17.9805 L219.2231,20.7031 Q218.5923,20.1221 217.9988,19.8523 Q217.4053,19.5825 216.7744,19.5825 Q215.4297,19.5825 214.7449,20.6492 Q214.0601,21.7158 214.0601,23.8159 Q214.0601,25.9077 214.7449,26.9744 Q215.4297,28.041 216.7744,28.041 Q217.4053,28.041 217.9988,27.7712 Q218.5923,27.5015 219.2231,26.9204 Z "/><text fill="#000000" font-family="sans-serif" font-size="12" lengthAdjust="spacingAndGlyphs" textLength="77" x="236.75" y="28.5352">AssetRegistry</text><line style="stroke: #A80036; stroke-width: 1.5;" x1="7" x2="511" y1="40" y2="40"/><line style="stroke: #A80036; stroke-width: 1.5;" x1="7" x2="511" y1="48" y2="48"/><ellipse cx="17" cy="59.9775" fill="#84BE84" rx="3" ry="3" style="stroke: #038048; stroke-width: 1.0;"/><text fill="#000000" font-family="sans-serif" font-size="11" lengthAdjust="spacingAndGlyphs" textLength="430" x="26" y="62.6348">Promise getAllAssetRegistries(SecurityContext,ModelManager,Factory,Serializer)</text><ellipse cx="17" cy="72.9326" fill="#84BE84" rx="3" ry="3" style="stroke: #038048; stroke-width: 1.0;"/><text fill="#000000" font-family="sans-serif" font-size="11" lengthAdjust="spacingAndGlyphs" textLength="442" x="26" y="75.5898">Promise getAssetRegistry(SecurityContext,string,ModelManager,Factory,Serializer)</text><ellipse cx="17" cy="85.8877" fill="#84BE84" rx="3" ry="3" style="stroke: #038048; stroke-width: 1.0;"/><text fill="#000000" font-family="sans-serif" font-size="11" lengthAdjust="spacingAndGlyphs" textLength="457" x="26" y="88.5449">Promise existsAssetRegistry(SecurityContext,string,ModelManager,Factory,Serializer)</text><ellipse cx="17" cy="98.8428" fill="#84BE84" rx="3" ry="3" style="stroke: #038048; stroke-width: 1.0;"/><text fill="#000000" font-family="sans-serif" font-size="11" lengthAdjust="spacingAndGlyphs" textLength="480" x="26" y="101.5">Promise addAssetRegistry(SecurityContext,string,string,ModelManager,Factory,Serializer)</text><ellipse cx="17" cy="111.7979" fill="#84BE84" rx="3" ry="3" style="stroke: #038048; stroke-width: 1.0;"/><text fill="#000000" font-family="sans-serif" font-size="11" lengthAdjust="spacingAndGlyphs" textLength="430" x="26" y="114.4551">void constructor(string,string,SecurityContext,ModelManager,Factory,Serializer)</text><path d="M259,121.146 C259,133.298 259,146.742 259,160.742 " fill="none" style="stroke: #A80036; stroke-width: 1.0;"/><polygon fill="none" points="266,160.828,259,180.828,252,160.828,266,160.828" style="stroke: #A80036; stroke-width: 1.0;"/></g></svg>