<?xml version="1.0" encoding="UTF-8" standalone="no"?><svg xmlns="http://www.w3.org/2000/svg" xmlns:xlink="http://www.w3.org/1999/xlink" contentScriptType="application/ecmascript" contentStyleType="text/css" height="515px" preserveAspectRatio="none" style="width:1398px;height:515px;" version="1.1" viewBox="0 0 1398 515" width="1398px" zoomAndPan="magnify"><defs><filter height="300%" id="fuhcz46" width="300%" x="-1" y="-1"><feGaussianBlur result="blurOut" stdDeviation="2.0"/><feColorMatrix in="blurOut" result="blurOut2" type="matrix" values="0 0 0 0 0 0 0 0 0 0 0 0 0 0 0 0 0 0 .4 0"/><feOffset dx="4.0" dy="4.0" in="blurOut2" result="blurOut3"/><feBlend in="SourceGraphic" in2="blurOut3" mode="normal"/></filter></defs><g><!--class Introspector--><rect fill="#FEFECE" filter="url(#fuhcz46)" height="86.8652" style="stroke: #A80036; stroke-width: 1.5;" width="266" x="40.5" y="34"/><ellipse cx="134.75" cy="50" fill="#ADD1B2" rx="11" ry="11" style="stroke: #A80036; stroke-width: 1.0;"/><path d="M137.7231,55.6431 Q137.1421,55.9419 136.5029,56.0913 Q135.8638,56.2407 135.1582,56.2407 Q132.6514,56.2407 131.3315,54.5889 Q130.0117,52.937 130.0117,49.8159 Q130.0117,46.6865 131.3315,45.0347 Q132.6514,43.3828 135.1582,43.3828 Q135.8638,43.3828 136.5112,43.5322 Q137.1587,43.6816 137.7231,43.9805 L137.7231,46.7031 Q137.0923,46.1221 136.4988,45.8523 Q135.9053,45.5825 135.2744,45.5825 Q133.9297,45.5825 133.2449,46.6492 Q132.5601,47.7158 132.5601,49.8159 Q132.5601,51.9077 133.2449,52.9744 Q133.9297,54.041 135.2744,54.041 Q135.9053,54.041 136.4988,53.7712 Q137.0923,53.5015 137.7231,52.9204 Z "/><text fill="#000000" font-family="sans-serif" font-size="12" lengthAdjust="spacingAndGlyphs" textLength="69" x="155.25" y="54.5352">Introspector</text><line style="stroke: #A80036; stroke-width: 1.5;" x1="41.5" x2="305.5" y1="66" y2="66"/><line style="stroke: #A80036; stroke-width: 1.5;" x1="41.5" x2="305.5" y1="74" y2="74"/><ellipse cx="51.5" cy="85.9775" fill="#84BE84" rx="3" ry="3" style="stroke: #038048; stroke-width: 1.0;"/><text fill="#000000" font-family="sans-serif" font-size="11" lengthAdjust="spacingAndGlyphs" textLength="176" x="60.5" y="88.6348">void constructor(ModelManager)</text><ellipse cx="51.5" cy="98.9326" fill="#84BE84" rx="3" ry="3" style="stroke: #038048; stroke-width: 1.0;"/><text fill="#000000" font-family="sans-serif" font-size="11" lengthAdjust="spacingAndGlyphs" textLength="222" x="60.5" y="101.5898">ClassDeclaration[] getClassDeclarations()</text><ellipse cx="51.5" cy="111.8877" fill="#84BE84" rx="3" ry="3" style="stroke: #038048; stroke-width: 1.0;"/><text fill="#000000" font-family="sans-serif" font-size="11" lengthAdjust="spacingAndGlyphs" textLength="240" x="60.5" y="114.5449">ClassDeclaration getClassDeclaration(String)</text><!--class Relationship--><rect fill="#FEFECE" filter="url(#fuhcz46)" height="73.9102" style="stroke: #A80036; stroke-width: 1.5;" width="155" x="768" y="265.5"/><ellipse cx="806.85" cy="281.5" fill="#ADD1B2" rx="11" ry="11" style="stroke: #A80036; stroke-width: 1.0;"/><path d="M809.8231,287.1431 Q809.2421,287.4419 808.6029,287.5913 Q807.9638,287.7407 807.2582,287.7407 Q804.7514,287.7407 803.4315,286.0889 Q802.1117,284.437 802.1117,281.3159 Q802.1117,278.1865 803.4315,276.5347 Q804.7514,274.8828 807.2582,274.8828 Q807.9638,274.8828 808.6112,275.0322 Q809.2587,275.1816 809.8231,275.4805 L809.8231,278.2031 Q809.1923,277.6221 808.5988,277.3523 Q808.0053,277.0825 807.3744,277.0825 Q806.0297,277.0825 805.3449,278.1492 Q804.6601,279.2158 804.6601,281.3159 Q804.6601,283.4077 805.3449,284.4744 Q806.0297,285.541 807.3744,285.541 Q808.0053,285.541 808.5988,285.2712 Q809.1923,285.0015 809.8231,284.4204 Z "/><text fill="#000000" font-family="sans-serif" font-size="12" lengthAdjust="spacingAndGlyphs" textLength="70" x="826.15" y="286.0352">Relationship</text><line style="stroke: #A80036; stroke-width: 1.5;" x1="769" x2="922" y1="297.5" y2="297.5"/><line style="stroke: #A80036; stroke-width: 1.5;" x1="769" x2="922" y1="305.5" y2="305.5"/><ellipse cx="779" cy="317.4775" fill="#84BE84" rx="3" ry="3" style="stroke: #038048; stroke-width: 1.0;"/><text fill="#000000" font-family="sans-serif" font-size="11" lengthAdjust="spacingAndGlyphs" textLength="86" x="788" y="320.1348">String toString()</text><ellipse cx="779" cy="330.4326" fill="#84BE84" rx="3" ry="3" style="stroke: #038048; stroke-width: 1.0;"/><text fill="#000000" font-family="sans-serif" font-size="11" lengthAdjust="spacingAndGlyphs" textLength="129" x="788" y="333.0898">boolean isRelationship()</text><!--class Identifiable--><rect fill="#FEFECE" filter="url(#fuhcz46)" height="48" style="stroke: #A80036; stroke-width: 1.5;" width="96" x="888.5" y="458"/><ellipse cx="903.5" cy="474" fill="#ADD1B2" rx="11" ry="11" style="stroke: #A80036; stroke-width: 1.0;"/><path d="M906.4731,479.6431 Q905.8921,479.9419 905.2529,480.0913 Q904.6138,480.2407 903.9082,480.2407 Q901.4014,480.2407 900.0815,478.5889 Q898.7617,476.937 898.7617,473.8159 Q898.7617,470.6865 900.0815,469.0347 Q901.4014,467.3828 903.9082,467.3828 Q904.6138,467.3828 905.2612,467.5322 Q905.9087,467.6816 906.4731,467.9805 L906.4731,470.7031 Q905.8423,470.1221 905.2488,469.8523 Q904.6553,469.5825 904.0244,469.5825 Q902.6797,469.5825 901.9949,470.6492 Q901.3101,471.7158 901.3101,473.8159 Q901.3101,475.9077 901.9949,476.9744 Q902.6797,478.041 904.0244,478.041 Q904.6553,478.041 905.2488,477.7712 Q905.8423,477.5015 906.4731,476.9204 Z "/><text fill="#000000" font-family="sans-serif" font-size="12" lengthAdjust="spacingAndGlyphs" textLength="64" x="917.5" y="478.5352">Identifiable</text><line style="stroke: #A80036; stroke-width: 1.5;" x1="889.5" x2="983.5" y1="490" y2="490"/><line style="stroke: #A80036; stroke-width: 1.5;" x1="889.5" x2="983.5" y1="498" y2="498"/><!--class Resource--><rect fill="#FEFECE" filter="url(#fuhcz46)" height="73.9102" style="stroke: #A80036; stroke-width: 1.5;" width="139" x="958" y="265.5"/><ellipse cx="997.3" cy="281.5" fill="#ADD1B2" rx="11" ry="11" style="stroke: #A80036; stroke-width: 1.0;"/><path d="M1000.2731,287.1431 Q999.6921,287.4419 999.0529,287.5913 Q998.4138,287.7407 997.7082,287.7407 Q995.2014,287.7407 993.8815,286.0889 Q992.5617,284.437 992.5617,281.3159 Q992.5617,278.1865 993.8815,276.5347 Q995.2014,274.8828 997.7082,274.8828 Q998.4138,274.8828 999.0612,275.0322 Q999.7087,275.1816 1000.2731,275.4805 L1000.2731,278.2031 Q999.6423,277.6221 999.0488,277.3523 Q998.4553,277.0825 997.8244,277.0825 Q996.4797,277.0825 995.7949,278.1492 Q995.1101,279.2158 995.1101,281.3159 Q995.1101,283.4077 995.7949,284.4744 Q996.4797,285.541 997.8244,285.541 Q998.4553,285.541 999.0488,285.2712 Q999.6423,285.0015 1000.2731,284.4204 Z "/><text fill="#000000" font-family="sans-serif" font-size="12" lengthAdjust="spacingAndGlyphs" textLength="53" x="1016.7" y="286.0352">Resource</text><line style="stroke: #A80036; stroke-width: 1.5;" x1="959" x2="1096" y1="297.5" y2="297.5"/><line style="stroke: #A80036; stroke-width: 1.5;" x1="959" x2="1096" y1="305.5" y2="305.5"/><ellipse cx="969" cy="317.4775" fill="#84BE84" rx="3" ry="3" style="stroke: #038048; stroke-width: 1.0;"/><text fill="#000000" font-family="sans-serif" font-size="11" lengthAdjust="spacingAndGlyphs" textLength="86" x="978" y="320.1348">String toString()</text><ellipse cx="969" cy="330.4326" fill="#84BE84" rx="3" ry="3" style="stroke: #038048; stroke-width: 1.0;"/><text fill="#000000" font-family="sans-serif" font-size="11" lengthAdjust="spacingAndGlyphs" textLength="113" x="978" y="333.0898">boolean isResource()</text><!--class ValidatedResource--><rect fill="#FEFECE" filter="url(#fuhcz46)" height="86.8652" style="stroke: #A80036; stroke-width: 1.5;" width="218" x="918.5" y="34"/><ellipse cx="969.25" cy="50" fill="#ADD1B2" rx="11" ry="11" style="stroke: #A80036; stroke-width: 1.0;"/><path d="M972.2231,55.6431 Q971.6421,55.9419 971.0029,56.0913 Q970.3638,56.2407 969.6582,56.2407 Q967.1514,56.2407 965.8315,54.5889 Q964.5117,52.937 964.5117,49.8159 Q964.5117,46.6865 965.8315,45.0347 Q967.1514,43.3828 969.6582,43.3828 Q970.3638,43.3828 971.0112,43.5322 Q971.6587,43.6816 972.2231,43.9805 L972.2231,46.7031 Q971.5923,46.1221 970.9988,45.8523 Q970.4053,45.5825 969.7744,45.5825 Q968.4297,45.5825 967.7449,46.6492 Q967.0601,47.7158 967.0601,49.8159 Q967.0601,51.9077 967.7449,52.9744 Q968.4297,54.041 969.7744,54.041 Q970.4053,54.041 970.9988,53.7712 Q971.5923,53.5015 972.2231,52.9204 Z "/><text fill="#000000" font-family="sans-serif" font-size="12" lengthAdjust="spacingAndGlyphs" textLength="108" x="989.75" y="54.5352">ValidatedResource</text><line style="stroke: #A80036; stroke-width: 1.5;" x1="919.5" x2="1135.5" y1="66" y2="66"/><line style="stroke: #A80036; stroke-width: 1.5;" x1="919.5" x2="1135.5" y1="74" y2="74"/><ellipse cx="929.5" cy="85.9775" fill="#84BE84" rx="3" ry="3" style="stroke: #038048; stroke-width: 1.0;"/><text fill="#000000" font-family="sans-serif" font-size="11" lengthAdjust="spacingAndGlyphs" textLength="192" x="938.5" y="88.6348">void setPropertyValue(string,string)</text><ellipse cx="929.5" cy="98.9326" fill="#84BE84" rx="3" ry="3" style="stroke: #038048; stroke-width: 1.0;"/><text fill="#000000" font-family="sans-serif" font-size="11" lengthAdjust="spacingAndGlyphs" textLength="180" x="938.5" y="101.5898">void addArrayValue(string,string)</text><ellipse cx="929.5" cy="111.8877" fill="#84BE84" rx="3" ry="3" style="stroke: #038048; stroke-width: 1.0;"/><text fill="#000000" font-family="sans-serif" font-size="11" lengthAdjust="spacingAndGlyphs" textLength="75" x="938.5" y="114.5449">void validate()</text><!--class Concept--><rect fill="#FEFECE" filter="url(#fuhcz46)" height="60.9551" style="stroke: #A80036; stroke-width: 1.5;" width="134" x="1213.5" y="272"/><ellipse cx="1253.25" cy="288" fill="#ADD1B2" rx="11" ry="11" style="stroke: #A80036; stroke-width: 1.0;"/><path d="M1256.2231,293.6431 Q1255.6421,293.9419 1255.0029,294.0913 Q1254.3638,294.2407 1253.6582,294.2407 Q1251.1514,294.2407 1249.8315,292.5889 Q1248.5117,290.937 1248.5117,287.8159 Q1248.5117,284.6865 1249.8315,283.0347 Q1251.1514,281.3828 1253.6582,281.3828 Q1254.3638,281.3828 1255.0112,281.5322 Q1255.6587,281.6816 1256.2231,281.9805 L1256.2231,284.7031 Q1255.5923,284.1221 1254.9988,283.8523 Q1254.4053,283.5825 1253.7744,283.5825 Q1252.4297,283.5825 1251.7449,284.6492 Q1251.0601,285.7158 1251.0601,287.8159 Q1251.0601,289.9077 1251.7449,290.9744 Q1252.4297,292.041 1253.7744,292.041 Q1254.4053,292.041 1254.9988,291.7712 Q1255.5923,291.5015 1256.2231,290.9204 Z "/><text fill="#000000" font-family="sans-serif" font-size="12" lengthAdjust="spacingAndGlyphs" textLength="47" x="1272.75" y="292.5352">Concept</text><line style="stroke: #A80036; stroke-width: 1.5;" x1="1214.5" x2="1346.5" y1="304" y2="304"/><line style="stroke: #A80036; stroke-width: 1.5;" x1="1214.5" x2="1346.5" y1="312" y2="312"/><ellipse cx="1224.5" cy="323.9775" fill="#84BE84" rx="3" ry="3" style="stroke: #038048; stroke-width: 1.0;"/><text fill="#000000" font-family="sans-serif" font-size="11" lengthAdjust="spacingAndGlyphs" textLength="108" x="1233.5" y="326.6348">boolean isConcept()</text><!--class Typed--><rect fill="#FEFECE" filter="url(#fuhcz46)" height="48" style="stroke: #A80036; stroke-width: 1.5;" width="69" x="1246" y="458"/><ellipse cx="1261" cy="474" fill="#ADD1B2" rx="11" ry="11" style="stroke: #A80036; stroke-width: 1.0;"/><path d="M1263.9731,479.6431 Q1263.3921,479.9419 1262.7529,480.0913 Q1262.1138,480.2407 1261.4082,480.2407 Q1258.9014,480.2407 1257.5815,478.5889 Q1256.2617,476.937 1256.2617,473.8159 Q1256.2617,470.6865 1257.5815,469.0347 Q1258.9014,467.3828 1261.4082,467.3828 Q1262.1138,467.3828 1262.7612,467.5322 Q1263.4087,467.6816 1263.9731,467.9805 L1263.9731,470.7031 Q1263.3423,470.1221 1262.7488,469.8523 Q1262.1553,469.5825 1261.5244,469.5825 Q1260.1797,469.5825 1259.4949,470.6492 Q1258.8101,471.7158 1258.8101,473.8159 Q1258.8101,475.9077 1259.4949,476.9744 Q1260.1797,478.041 1261.5244,478.041 Q1262.1553,478.041 1262.7488,477.7712 Q1263.3423,477.5015 1263.9731,476.9204 Z "/><text fill="#000000" font-family="sans-serif" font-size="12" lengthAdjust="spacingAndGlyphs" textLength="37" x="1275" y="478.5352">Typed</text><line style="stroke: #A80036; stroke-width: 1.5;" x1="1247" x2="1314" y1="490" y2="490"/><line style="stroke: #A80036; stroke-width: 1.5;" x1="1247" x2="1314" y1="498" y2="498"/><!--class ValidatedConcept--><rect fill="#FEFECE" filter="url(#fuhcz46)" height="86.8652" style="stroke: #A80036; stroke-width: 1.5;" width="218" x="1171.5" y="34"/><ellipse cx="1225.25" cy="50" fill="#ADD1B2" rx="11" ry="11" style="stroke: #A80036; stroke-width: 1.0;"/><path d="M1228.2231,55.6431 Q1227.6421,55.9419 1227.0029,56.0913 Q1226.3638,56.2407 1225.6582,56.2407 Q1223.1514,56.2407 1221.8315,54.5889 Q1220.5117,52.937 1220.5117,49.8159 Q1220.5117,46.6865 1221.8315,45.0347 Q1223.1514,43.3828 1225.6582,43.3828 Q1226.3638,43.3828 1227.0112,43.5322 Q1227.6587,43.6816 1228.2231,43.9805 L1228.2231,46.7031 Q1227.5923,46.1221 1226.9988,45.8523 Q1226.4053,45.5825 1225.7744,45.5825 Q1224.4297,45.5825 1223.7449,46.6492 Q1223.0601,47.7158 1223.0601,49.8159 Q1223.0601,51.9077 1223.7449,52.9744 Q1224.4297,54.041 1225.7744,54.041 Q1226.4053,54.041 1226.9988,53.7712 Q1227.5923,53.5015 1228.2231,52.9204 Z "/><text fill="#000000" font-family="sans-serif" font-size="12" lengthAdjust="spacingAndGlyphs" textLength="102" x="1245.75" y="54.5352">ValidatedConcept</text><line style="stroke: #A80036; stroke-width: 1.5;" x1="1172.5" x2="1388.5" y1="66" y2="66"/><line style="stroke: #A80036; stroke-width: 1.5;" x1="1172.5" x2="1388.5" y1="74" y2="74"/><ellipse cx="1182.5" cy="85.9775" fill="#84BE84" rx="3" ry="3" style="stroke: #038048; stroke-width: 1.0;"/><text fill="#000000" font-family="sans-serif" font-size="11" lengthAdjust="spacingAndGlyphs" textLength="192" x="1191.5" y="88.6348">void setPropertyValue(string,string)</text><ellipse cx="1182.5" cy="98.9326" fill="#84BE84" rx="3" ry="3" style="stroke: #038048; stroke-width: 1.0;"/><text fill="#000000" font-family="sans-serif" font-size="11" lengthAdjust="spacingAndGlyphs" textLength="180" x="1191.5" y="101.5898">void addArrayValue(string,string)</text><ellipse cx="1182.5" cy="111.8877" fill="#84BE84" rx="3" ry="3" style="stroke: #038048; stroke-width: 1.0;"/><text fill="#000000" font-family="sans-serif" font-size="11" lengthAdjust="spacingAndGlyphs" textLength="75" x="1191.5" y="114.5449">void validate()</text><!--class Factory--><rect fill="#FEFECE" filter="url(#fuhcz46)" height="138.6855" style="stroke: #A80036; stroke-width: 1.5;" width="390" x="341.5" y="8"/><ellipse cx="511.75" cy="24" fill="#ADD1B2" rx="11" ry="11" style="stroke: #A80036; stroke-width: 1.0;"/><path d="M514.7231,29.6431 Q514.1421,29.9419 513.5029,30.0913 Q512.8638,30.2407 512.1582,30.2407 Q509.6514,30.2407 508.3315,28.5889 Q507.0117,26.937 507.0117,23.8159 Q507.0117,20.6865 508.3315,19.0347 Q509.6514,17.3828 512.1582,17.3828 Q512.8638,17.3828 513.5112,17.5322 Q514.1587,17.6816 514.7231,17.9805 L514.7231,20.7031 Q514.0923,20.1221 513.4988,19.8523 Q512.9053,19.5825 512.2744,19.5825 Q510.9297,19.5825 510.2449,20.6492 Q509.5601,21.7158 509.5601,23.8159 Q509.5601,25.9077 510.2449,26.9744 Q510.9297,28.041 512.2744,28.041 Q512.9053,28.041 513.4988,27.7712 Q514.0923,27.5015 514.7231,26.9204 Z "/><text fill="#000000" font-family="sans-serif" font-size="12" lengthAdjust="spacingAndGlyphs" textLength="41" x="532.25" y="28.5352">Factory</text><line style="stroke: #A80036; stroke-width: 1.5;" x1="342.5" x2="730.5" y1="40" y2="40"/><line style="stroke: #A80036; stroke-width: 1.5;" x1="342.5" x2="730.5" y1="48" y2="48"/><ellipse cx="352.5" cy="59.9775" fill="#84BE84" rx="3" ry="3" style="stroke: #038048; stroke-width: 1.0;"/><text fill="#000000" font-family="sans-serif" font-size="11" lengthAdjust="spacingAndGlyphs" textLength="176" x="361.5" y="62.6348">void constructor(ModelManager)</text><ellipse cx="352.5" cy="72.9326" fill="#84BE84" rx="3" ry="3" style="stroke: #038048; stroke-width: 1.0;"/><text fill="#000000" font-family="sans-serif" font-size="11" lengthAdjust="spacingAndGlyphs" textLength="359" x="361.5" y="75.5898">Resource newInstance(string,string,string,Object,boolean,boolean)</text><ellipse cx="352.5" cy="85.8877" fill="#84BE84" rx="3" ry="3" style="stroke: #038048; stroke-width: 1.0;"/><text fill="#000000" font-family="sans-serif" font-size="11" lengthAdjust="spacingAndGlyphs" textLength="364" x="361.5" y="88.5449">Resource newResource(string,string,string,Object,boolean,boolean)</text><ellipse cx="352.5" cy="98.8428" fill="#84BE84" rx="3" ry="3" style="stroke: #038048; stroke-width: 1.0;"/><text fill="#000000" font-family="sans-serif" font-size="11" lengthAdjust="spacingAndGlyphs" textLength="324" x="361.5" y="101.5">Resource newConcept(string,string,Object,boolean,boolean)</text><ellipse cx="352.5" cy="111.7979" fill="#84BE84" rx="3" ry="3" style="stroke: #038048; stroke-width: 1.0;"/><text fill="#000000" font-family="sans-serif" font-size="11" lengthAdjust="spacingAndGlyphs" textLength="266" x="361.5" y="114.4551">Relationship newRelationship(string,string,string)</text><ellipse cx="352.5" cy="124.7529" fill="#84BE84" rx="3" ry="3" style="stroke: #038048; stroke-width: 1.0;"/><text fill="#000000" font-family="sans-serif" font-size="11" lengthAdjust="spacingAndGlyphs" textLength="332" x="361.5" y="127.4102">Resource newTransaction(string,string,string,Object,boolean)</text><ellipse cx="352.5" cy="137.708" fill="#84BE84" rx="3" ry="3" style="stroke: #038048; stroke-width: 1.0;"/><text fill="#000000" font-family="sans-serif" font-size="11" lengthAdjust="spacingAndGlyphs" textLength="83" x="361.5" y="140.3652">Object toJSON()</text><!--class Serializer--><rect fill="#FEFECE" filter="url(#fuhcz46)" height="86.8652" style="stroke: #A80036; stroke-width: 1.5;" width="335" x="6" y="259"/><ellipse cx="142.75" cy="275" fill="#ADD1B2" rx="11" ry="11" style="stroke: #A80036; stroke-width: 1.0;"/><path d="M145.7231,280.6431 Q145.1421,280.9419 144.5029,281.0913 Q143.8638,281.2407 143.1582,281.2407 Q140.6514,281.2407 139.3315,279.5889 Q138.0117,277.937 138.0117,274.8159 Q138.0117,271.6865 139.3315,270.0347 Q140.6514,268.3828 143.1582,268.3828 Q143.8638,268.3828 144.5112,268.5322 Q145.1587,268.6816 145.7231,268.9805 L145.7231,271.7031 Q145.0923,271.1221 144.4988,270.8523 Q143.9053,270.5825 143.2744,270.5825 Q141.9297,270.5825 141.2449,271.6492 Q140.5601,272.7158 140.5601,274.8159 Q140.5601,276.9077 141.2449,277.9744 Q141.9297,279.041 143.2744,279.041 Q143.9053,279.041 144.4988,278.7712 Q145.0923,278.5015 145.7231,277.9204 Z "/><text fill="#000000" font-family="sans-serif" font-size="12" lengthAdjust="spacingAndGlyphs" textLength="53" x="163.25" y="279.5352">Serializer</text><line style="stroke: #A80036; stroke-width: 1.5;" x1="7" x2="340" y1="291" y2="291"/><line style="stroke: #A80036; stroke-width: 1.5;" x1="7" x2="340" y1="299" y2="299"/><ellipse cx="17" cy="310.9775" fill="#84BE84" rx="3" ry="3" style="stroke: #038048; stroke-width: 1.0;"/><text fill="#000000" font-family="sans-serif" font-size="11" lengthAdjust="spacingAndGlyphs" textLength="219" x="26" y="313.6348">void constructor(Factory,ModelManager)</text><ellipse cx="17" cy="323.9326" fill="#84BE84" rx="3" ry="3" style="stroke: #038048; stroke-width: 1.0;"/><text fill="#000000" font-family="sans-serif" font-size="11" lengthAdjust="spacingAndGlyphs" textLength="309" x="26" y="326.5898">Object toJSON(Resource,Object,boolean,boolean,boolean)</text><ellipse cx="17" cy="336.8877" fill="#84BE84" rx="3" ry="3" style="stroke: #038048; stroke-width: 1.0;"/><text fill="#000000" font-family="sans-serif" font-size="11" lengthAdjust="spacingAndGlyphs" textLength="232" x="26" y="339.5449">Resource fromJSON(Object,Object,boolean)</text><!--class BusinessNetworkDefinition--><rect fill="#FEFECE" filter="url(#fuhcz46)" height="190.5059" style="stroke: #A80036; stroke-width: 1.5;" width="356" x="376.5" y="207"/><ellipse cx="474.75" cy="223" fill="#ADD1B2" rx="11" ry="11" style="stroke: #A80036; stroke-width: 1.0;"/><path d="M477.7231,228.6431 Q477.1421,228.9419 476.5029,229.0913 Q475.8638,229.2407 475.1582,229.2407 Q472.6514,229.2407 471.3315,227.5889 Q470.0117,225.937 470.0117,222.8159 Q470.0117,219.6865 471.3315,218.0347 Q472.6514,216.3828 475.1582,216.3828 Q475.8638,216.3828 476.5112,216.5322 Q477.1587,216.6816 477.7231,216.9805 L477.7231,219.7031 Q477.0923,219.1221 476.4988,218.8523 Q475.9053,218.5825 475.2744,218.5825 Q473.9297,218.5825 473.2449,219.6492 Q472.5601,220.7158 472.5601,222.8159 Q472.5601,224.9077 473.2449,225.9744 Q473.9297,227.041 475.2744,227.041 Q475.9053,227.041 476.4988,226.7712 Q477.0923,226.5015 477.7231,225.9204 Z "/><text fill="#000000" font-family="sans-serif" font-size="12" lengthAdjust="spacingAndGlyphs" textLength="151" x="495.25" y="227.5352">BusinessNetworkDefinition</text><line style="stroke: #A80036; stroke-width: 1.5;" x1="377.5" x2="731.5" y1="239" y2="239"/><line style="stroke: #A80036; stroke-width: 1.5;" x1="377.5" x2="731.5" y1="247" y2="247"/><ellipse cx="387.5" cy="258.9775" fill="#84BE84" rx="3" ry="3" style="stroke: #038048; stroke-width: 1.0;"/><text fill="#000000" font-family="sans-serif" font-size="11" lengthAdjust="spacingAndGlyphs" textLength="165" x="396.5" y="261.6348">void constructor(String,String)</text><ellipse cx="387.5" cy="271.9326" fill="#84BE84" rx="3" ry="3" style="stroke: #038048; stroke-width: 1.0;"/><text fill="#000000" font-family="sans-serif" font-size="11" lengthAdjust="spacingAndGlyphs" textLength="108" x="396.5" y="274.5898">String getIdentifier()</text><ellipse cx="387.5" cy="284.8877" fill="#84BE84" rx="3" ry="3" style="stroke: #038048; stroke-width: 1.0;"/><text fill="#000000" font-family="sans-serif" font-size="11" lengthAdjust="spacingAndGlyphs" textLength="90" x="396.5" y="287.5449">String getName()</text><ellipse cx="387.5" cy="297.8428" fill="#84BE84" rx="3" ry="3" style="stroke: #038048; stroke-width: 1.0;"/><text fill="#000000" font-family="sans-serif" font-size="11" lengthAdjust="spacingAndGlyphs" textLength="101" x="396.5" y="300.5">String getVersion()</text><ellipse cx="387.5" cy="310.7979" fill="#84BE84" rx="3" ry="3" style="stroke: #038048; stroke-width: 1.0;"/><text fill="#000000" font-family="sans-serif" font-size="11" lengthAdjust="spacingAndGlyphs" textLength="122" x="396.5" y="313.4551">String getDescription()</text><ellipse cx="387.5" cy="323.7529" fill="#84BE84" rx="3" ry="3" style="stroke: #038048; stroke-width: 1.0;"/><text fill="#000000" font-family="sans-serif" font-size="11" lengthAdjust="spacingAndGlyphs" textLength="153" x="396.5" y="326.4102">Promise fromArchive(Buffer)</text><ellipse cx="387.5" cy="336.708" fill="#84BE84" rx="3" ry="3" style="stroke: #038048; stroke-width: 1.0;"/><text fill="#000000" font-family="sans-serif" font-size="11" lengthAdjust="spacingAndGlyphs" textLength="95" x="396.5" y="339.3652">Buffer toArchive()</text><ellipse cx="387.5" cy="349.6631" fill="#84BE84" rx="3" ry="3" style="stroke: #038048; stroke-width: 1.0;"/><text fill="#000000" font-family="sans-serif" font-size="11" lengthAdjust="spacingAndGlyphs" textLength="330" x="396.5" y="352.3203">Promise fromDirectory(String,Object,Object,boolean,boolean)</text><ellipse cx="387.5" cy="362.6182" fill="#84BE84" rx="3" ry="3" style="stroke: #038048; stroke-width: 1.0;"/><text fill="#000000" font-family="sans-serif" font-size="11" lengthAdjust="spacingAndGlyphs" textLength="162" x="396.5" y="365.2754">Introspector getIntrospector()</text><ellipse cx="387.5" cy="375.5732" fill="#84BE84" rx="3" ry="3" style="stroke: #038048; stroke-width: 1.0;"/><text fill="#000000" font-family="sans-serif" font-size="11" lengthAdjust="spacingAndGlyphs" textLength="108" x="396.5" y="378.2305">Factory getFactory()</text><ellipse cx="387.5" cy="388.5283" fill="#84BE84" rx="3" ry="3" style="stroke: #038048; stroke-width: 1.0;"/><text fill="#000000" font-family="sans-serif" font-size="11" lengthAdjust="spacingAndGlyphs" textLength="126" x="396.5" y="391.1855">Serializer getSerializer()</text><path d="M864.135,339.848 C879.021,368.885 899.886,409.5819 915.388,439.8204 " fill="none" style="stroke: #A80036; stroke-width: 1.0;"/><polygon fill="none" points="921.789,436.9626,924.685,457.9535,909.331,443.3496,921.789,436.9626" style="stroke: #A80036; stroke-width: 1.0;"/><path d="M1008.87,339.848 C993.979,368.885 973.114,409.5819 957.612,439.8204 " fill="none" style="stroke: #A80036; stroke-width: 1.0;"/><polygon fill="none" points="963.669,443.3496,948.315,457.9535,951.211,436.9626,963.669,443.3496" style="stroke: #A80036; stroke-width: 1.0;"/><path d="M1027.5,121.233 C1027.5,156.446 1027.5,206.673 1027.5,245.169 " fill="none" style="stroke: #A80036; stroke-width: 1.0;"/><polygon fill="none" points="1034.5,245.18,1027.5,265.18,1020.5,245.18,1034.5,245.18" style="stroke: #A80036; stroke-width: 1.0;"/><path d="M1280.5,333.21 C1280.5,361.756 1280.5,405.217 1280.5,437.6298 " fill="none" style="stroke: #A80036; stroke-width: 1.0;"/><polygon fill="none" points="1287.5,437.9855,1280.5,457.9855,1273.5,437.9854,1287.5,437.9855" style="stroke: #A80036; stroke-width: 1.0;"/><path d="M1280.5,121.233 C1280.5,158.474 1280.5,212.506 1280.5,251.697 " fill="none" style="stroke: #A80036; stroke-width: 1.0;"/><polygon fill="none" points="1287.5,251.742,1280.5,271.742,1273.5,251.742,1287.5,251.742" style="stroke: #A80036; stroke-width: 1.0;"/></g></svg>