<?xml version="1.0" encoding="UTF-8" standalone="no"?><svg xmlns="http://www.w3.org/2000/svg" xmlns:xlink="http://www.w3.org/1999/xlink" contentScriptType="application/ecmascript" contentStyleType="text/css" height="613px" preserveAspectRatio="none" style="width:2007px;height:613px;" version="1.1" viewBox="0 0 2007 613" width="2007px" zoomAndPan="magnify"><defs><filter height="300%" id="fdqufr5" width="300%" x="-1" y="-1"><feGaussianBlur result="blurOut" stdDeviation="2.0"/><feColorMatrix in="blurOut" result="blurOut2" type="matrix" values="0 0 0 0 0 0 0 0 0 0 0 0 0 0 0 0 0 0 .4 0"/><feOffset dx="4.0" dy="4.0" in="blurOut2" result="blurOut3"/><feBlend in="SourceGraphic" in2="blurOut3" mode="normal"/></filter></defs><g><!--class Registry--><rect fill="#FEFECE" filter="url(#fdqufr5)" height="281.1914" style="stroke: #A80036; stroke-width: 1.5;" width="491" x="568.5" y="323"/><ellipse cx="786.75" cy="339" fill="#ADD1B2" rx="11" ry="11" style="stroke: #A80036; stroke-width: 1.0;"/><path d="M789.7231,344.6431 Q789.1421,344.9419 788.5029,345.0913 Q787.8638,345.2407 787.1582,345.2407 Q784.6514,345.2407 783.3315,343.5889 Q782.0117,341.937 782.0117,338.8159 Q782.0117,335.6865 783.3315,334.0347 Q784.6514,332.3828 787.1582,332.3828 Q787.8638,332.3828 788.5112,332.5322 Q789.1587,332.6816 789.7231,332.9805 L789.7231,335.7031 Q789.0923,335.1221 788.4988,334.8523 Q787.9053,334.5825 787.2744,334.5825 Q785.9297,334.5825 785.2449,335.6492 Q784.5601,336.7158 784.5601,338.8159 Q784.5601,340.9077 785.2449,341.9744 Q785.9297,343.041 787.2744,343.041 Q787.9053,343.041 788.4988,342.7712 Q789.0923,342.5015 789.7231,341.9204 Z "/><text fill="#000000" font-family="sans-serif" font-size="12" lengthAdjust="spacingAndGlyphs" textLength="46" x="807.25" y="343.5352">Registry</text><line style="stroke: #A80036; stroke-width: 1.5;" x1="569.5" x2="1058.5" y1="355" y2="355"/><line style="stroke: #A80036; stroke-width: 1.5;" x1="569.5" x2="1058.5" y1="363" y2="363"/><ellipse cx="579.5" cy="374.9775" fill="#84BE84" rx="3" ry="3" style="stroke: #038048; stroke-width: 1.0;"/><text fill="#000000" font-family="sans-serif" font-size="11" lengthAdjust="spacingAndGlyphs" textLength="259" x="588.5" y="377.6348">Promise getAllRegistries(SecurityContext,string)</text><ellipse cx="579.5" cy="387.9326" fill="#84BE84" rx="3" ry="3" style="stroke: #038048; stroke-width: 1.0;"/><text fill="#000000" font-family="sans-serif" font-size="11" lengthAdjust="spacingAndGlyphs" textLength="271" x="588.5" y="390.5898">Promise getRegistry(SecurityContext,string,string)</text><ellipse cx="579.5" cy="400.8877" fill="#84BE84" rx="3" ry="3" style="stroke: #038048; stroke-width: 1.0;"/><text fill="#000000" font-family="sans-serif" font-size="11" lengthAdjust="spacingAndGlyphs" textLength="286" x="588.5" y="403.5449">Promise existsRegistry(SecurityContext,string,string)</text><ellipse cx="579.5" cy="413.8428" fill="#84BE84" rx="3" ry="3" style="stroke: #038048; stroke-width: 1.0;"/><text fill="#000000" font-family="sans-serif" font-size="11" lengthAdjust="spacingAndGlyphs" textLength="309" x="588.5" y="416.5">Promise addRegistry(SecurityContext,string,string,string)</text><ellipse cx="579.5" cy="426.7979" fill="#84BE84" rx="3" ry="3" style="stroke: #038048; stroke-width: 1.0;"/><text fill="#000000" font-family="sans-serif" font-size="11" lengthAdjust="spacingAndGlyphs" textLength="465" x="588.5" y="429.4551">void constructor(string,string,string,SecurityContext,ModelManager,Factory,Serializer)</text><ellipse cx="579.5" cy="439.7529" fill="#84BE84" rx="3" ry="3" style="stroke: #038048; stroke-width: 1.0;"/><text fill="#000000" font-family="sans-serif" font-size="11" lengthAdjust="spacingAndGlyphs" textLength="146" x="588.5" y="442.4102">Promise addAll(Resource[])</text><ellipse cx="579.5" cy="452.708" fill="#84BE84" rx="3" ry="3" style="stroke: #038048; stroke-width: 1.0;"/><text fill="#000000" font-family="sans-serif" font-size="11" lengthAdjust="spacingAndGlyphs" textLength="124" x="588.5" y="455.3652">Promise add(Resource)</text><ellipse cx="579.5" cy="465.6631" fill="#84BE84" rx="3" ry="3" style="stroke: #038048; stroke-width: 1.0;"/><text fill="#000000" font-family="sans-serif" font-size="11" lengthAdjust="spacingAndGlyphs" textLength="163" x="588.5" y="468.3203">Promise updateAll(Resource[])</text><ellipse cx="579.5" cy="478.6182" fill="#84BE84" rx="3" ry="3" style="stroke: #038048; stroke-width: 1.0;"/><text fill="#000000" font-family="sans-serif" font-size="11" lengthAdjust="spacingAndGlyphs" textLength="141" x="588.5" y="481.2754">Promise update(Resource)</text><ellipse cx="579.5" cy="491.5732" fill="#84BE84" rx="3" ry="3" style="stroke: #038048; stroke-width: 1.0;"/><text fill="#000000" font-family="sans-serif" font-size="11" lengthAdjust="spacingAndGlyphs" textLength="108" x="588.5" y="494.2305">Promise removeAll()</text><ellipse cx="579.5" cy="504.5283" fill="#84BE84" rx="3" ry="3" style="stroke: #038048; stroke-width: 1.0;"/><text fill="#000000" font-family="sans-serif" font-size="11" lengthAdjust="spacingAndGlyphs" textLength="94" x="588.5" y="507.1855">Promise remove()</text><ellipse cx="579.5" cy="517.4834" fill="#84BE84" rx="3" ry="3" style="stroke: #038048; stroke-width: 1.0;"/><text fill="#000000" font-family="sans-serif" font-size="11" lengthAdjust="spacingAndGlyphs" textLength="85" x="588.5" y="520.1406">Promise getAll()</text><ellipse cx="579.5" cy="530.4385" fill="#84BE84" rx="3" ry="3" style="stroke: #038048; stroke-width: 1.0;"/><text fill="#000000" font-family="sans-serif" font-size="11" lengthAdjust="spacingAndGlyphs" textLength="103" x="588.5" y="533.0957">Promise get(string)</text><ellipse cx="579.5" cy="543.3936" fill="#84BE84" rx="3" ry="3" style="stroke: #038048; stroke-width: 1.0;"/><text fill="#000000" font-family="sans-serif" font-size="11" lengthAdjust="spacingAndGlyphs" textLength="118" x="588.5" y="546.0508">Promise exists(string)</text><ellipse cx="579.5" cy="556.3486" fill="#84BE84" rx="3" ry="3" style="stroke: #038048; stroke-width: 1.0;"/><text fill="#000000" font-family="sans-serif" font-size="11" lengthAdjust="spacingAndGlyphs" textLength="107" x="588.5" y="559.0059">Promise find(string)</text><ellipse cx="579.5" cy="569.3037" fill="#84BE84" rx="3" ry="3" style="stroke: #038048; stroke-width: 1.0;"/><text fill="#000000" font-family="sans-serif" font-size="11" lengthAdjust="spacingAndGlyphs" textLength="117" x="588.5" y="571.9609">Promise query(string)</text><ellipse cx="579.5" cy="582.2588" fill="#84BE84" rx="3" ry="3" style="stroke: #038048; stroke-width: 1.0;"/><text fill="#000000" font-family="sans-serif" font-size="11" lengthAdjust="spacingAndGlyphs" textLength="107" x="588.5" y="584.916">Promise resolveAll()</text><ellipse cx="579.5" cy="595.2139" fill="#84BE84" rx="3" ry="3" style="stroke: #038048; stroke-width: 1.0;"/><text fill="#000000" font-family="sans-serif" font-size="11" lengthAdjust="spacingAndGlyphs" textLength="125" x="588.5" y="597.8711">Promise resolve(string)</text><!--class AssetRegistry--><rect fill="#FEFECE" filter="url(#fdqufr5)" height="112.7754" style="stroke: #A80036; stroke-width: 1.5;" width="506" x="6" y="79"/><ellipse cx="216.25" cy="95" fill="#ADD1B2" rx="11" ry="11" style="stroke: #A80036; stroke-width: 1.0;"/><path d="M219.2231,100.6431 Q218.6421,100.9419 218.0029,101.0913 Q217.3638,101.2407 216.6582,101.2407 Q214.1514,101.2407 212.8315,99.5889 Q211.5117,97.937 211.5117,94.8159 Q211.5117,91.6865 212.8315,90.0347 Q214.1514,88.3828 216.6582,88.3828 Q217.3638,88.3828 218.0112,88.5322 Q218.6587,88.6816 219.2231,88.9805 L219.2231,91.7031 Q218.5923,91.1221 217.9988,90.8523 Q217.4053,90.5825 216.7744,90.5825 Q215.4297,90.5825 214.7449,91.6492 Q214.0601,92.7158 214.0601,94.8159 Q214.0601,96.9077 214.7449,97.9744 Q215.4297,99.041 216.7744,99.041 Q217.4053,99.041 217.9988,98.7712 Q218.5923,98.5015 219.2231,97.9204 Z "/><text fill="#000000" font-family="sans-serif" font-size="12" lengthAdjust="spacingAndGlyphs" textLength="77" x="236.75" y="99.5352">AssetRegistry</text><line style="stroke: #A80036; stroke-width: 1.5;" x1="7" x2="511" y1="111" y2="111"/><line style="stroke: #A80036; stroke-width: 1.5;" x1="7" x2="511" y1="119" y2="119"/><ellipse cx="17" cy="130.9775" fill="#84BE84" rx="3" ry="3" style="stroke: #038048; stroke-width: 1.0;"/><text fill="#000000" font-family="sans-serif" font-size="11" lengthAdjust="spacingAndGlyphs" textLength="430" x="26" y="133.6348">Promise getAllAssetRegistries(SecurityContext,ModelManager,Factory,Serializer)</text><ellipse cx="17" cy="143.9326" fill="#84BE84" rx="3" ry="3" style="stroke: #038048; stroke-width: 1.0;"/><text fill="#000000" font-family="sans-serif" font-size="11" lengthAdjust="spacingAndGlyphs" textLength="442" x="26" y="146.5898">Promise getAssetRegistry(SecurityContext,string,ModelManager,Factory,Serializer)</text><ellipse cx="17" cy="156.8877" fill="#84BE84" rx="3" ry="3" style="stroke: #038048; stroke-width: 1.0;"/><text fill="#000000" font-family="sans-serif" font-size="11" lengthAdjust="spacingAndGlyphs" textLength="457" x="26" y="159.5449">Promise existsAssetRegistry(SecurityContext,string,ModelManager,Factory,Serializer)</text><ellipse cx="17" cy="169.8428" fill="#84BE84" rx="3" ry="3" style="stroke: #038048; stroke-width: 1.0;"/><text fill="#000000" font-family="sans-serif" font-size="11" lengthAdjust="spacingAndGlyphs" textLength="480" x="26" y="172.5">Promise addAssetRegistry(SecurityContext,string,string,ModelManager,Factory,Serializer)</text><ellipse cx="17" cy="182.7979" fill="#84BE84" rx="3" ry="3" style="stroke: #038048; stroke-width: 1.0;"/><text fill="#000000" font-family="sans-serif" font-size="11" lengthAdjust="spacingAndGlyphs" textLength="430" x="26" y="185.4551">void constructor(string,string,SecurityContext,ModelManager,Factory,Serializer)</text><!--class ParticipantRegistry--><rect fill="#FEFECE" filter="url(#fdqufr5)" height="99.8203" style="stroke: #A80036; stroke-width: 1.5;" width="533" x="547.5" y="85.5"/><ellipse cx="756.25" cy="101.5" fill="#ADD1B2" rx="11" ry="11" style="stroke: #A80036; stroke-width: 1.0;"/><path d="M759.2231,107.1431 Q758.6421,107.4419 758.0029,107.5913 Q757.3638,107.7407 756.6582,107.7407 Q754.1514,107.7407 752.8315,106.0889 Q751.5117,104.437 751.5117,101.3159 Q751.5117,98.1865 752.8315,96.5347 Q754.1514,94.8828 756.6582,94.8828 Q757.3638,94.8828 758.0112,95.0322 Q758.6587,95.1816 759.2231,95.4805 L759.2231,98.2031 Q758.5923,97.6221 757.9988,97.3523 Q757.4053,97.0825 756.7744,97.0825 Q755.4297,97.0825 754.7449,98.1492 Q754.0601,99.2158 754.0601,101.3159 Q754.0601,103.4077 754.7449,104.4744 Q755.4297,105.541 756.7744,105.541 Q757.4053,105.541 757.9988,105.2712 Q758.5923,105.0015 759.2231,104.4204 Z "/><text fill="#000000" font-family="sans-serif" font-size="12" lengthAdjust="spacingAndGlyphs" textLength="107" x="776.75" y="106.0352">ParticipantRegistry</text><line style="stroke: #A80036; stroke-width: 1.5;" x1="548.5" x2="1079.5" y1="117.5" y2="117.5"/><line style="stroke: #A80036; stroke-width: 1.5;" x1="548.5" x2="1079.5" y1="125.5" y2="125.5"/><ellipse cx="558.5" cy="137.4775" fill="#84BE84" rx="3" ry="3" style="stroke: #038048; stroke-width: 1.0;"/><text fill="#000000" font-family="sans-serif" font-size="11" lengthAdjust="spacingAndGlyphs" textLength="457" x="567.5" y="140.1348">Promise getAllParticipantRegistries(SecurityContext,ModelManager,Factory,Serializer)</text><ellipse cx="558.5" cy="150.4326" fill="#84BE84" rx="3" ry="3" style="stroke: #038048; stroke-width: 1.0;"/><text fill="#000000" font-family="sans-serif" font-size="11" lengthAdjust="spacingAndGlyphs" textLength="469" x="567.5" y="153.0898">Promise getParticipantRegistry(SecurityContext,string,ModelManager,Factory,Serializer)</text><ellipse cx="558.5" cy="163.3877" fill="#84BE84" rx="3" ry="3" style="stroke: #038048; stroke-width: 1.0;"/><text fill="#000000" font-family="sans-serif" font-size="11" lengthAdjust="spacingAndGlyphs" textLength="507" x="567.5" y="166.0449">Promise addParticipantRegistry(SecurityContext,string,string,ModelManager,Factory,Serializer)</text><ellipse cx="558.5" cy="176.3428" fill="#84BE84" rx="3" ry="3" style="stroke: #038048; stroke-width: 1.0;"/><text fill="#000000" font-family="sans-serif" font-size="11" lengthAdjust="spacingAndGlyphs" textLength="430" x="567.5" y="179">void constructor(string,string,SecurityContext,ModelManager,Factory,Serializer)</text><!--class TransactionRegistry--><rect fill="#FEFECE" filter="url(#fdqufr5)" height="177.5508" style="stroke: #A80036; stroke-width: 1.5;" width="540" x="1116" y="46.5"/><ellipse cx="1325.25" cy="62.5" fill="#ADD1B2" rx="11" ry="11" style="stroke: #A80036; stroke-width: 1.0;"/><path d="M1328.2231,68.1431 Q1327.6421,68.4419 1327.0029,68.5913 Q1326.3638,68.7407 1325.6582,68.7407 Q1323.1514,68.7407 1321.8315,67.0889 Q1320.5117,65.437 1320.5117,62.3159 Q1320.5117,59.1865 1321.8315,57.5347 Q1323.1514,55.8828 1325.6582,55.8828 Q1326.3638,55.8828 1327.0112,56.0322 Q1327.6587,56.1816 1328.2231,56.4805 L1328.2231,59.2031 Q1327.5923,58.6221 1326.9988,58.3523 Q1326.4053,58.0825 1325.7744,58.0825 Q1324.4297,58.0825 1323.7449,59.1492 Q1323.0601,60.2158 1323.0601,62.3159 Q1323.0601,64.4077 1323.7449,65.4744 Q1324.4297,66.541 1325.7744,66.541 Q1326.4053,66.541 1326.9988,66.2712 Q1327.5923,66.0015 1328.2231,65.4204 Z "/><text fill="#000000" font-family="sans-serif" font-size="12" lengthAdjust="spacingAndGlyphs" textLength="113" x="1345.75" y="67.0352">TransactionRegistry</text><line style="stroke: #A80036; stroke-width: 1.5;" x1="1117" x2="1655" y1="78.5" y2="78.5"/><line style="stroke: #A80036; stroke-width: 1.5;" x1="1117" x2="1655" y1="86.5" y2="86.5"/><ellipse cx="1127" cy="98.4775" fill="#84BE84" rx="3" ry="3" style="stroke: #038048; stroke-width: 1.0;"/><text fill="#000000" font-family="sans-serif" font-size="11" lengthAdjust="spacingAndGlyphs" textLength="464" x="1136" y="101.1348">Promise getAllTransactionRegistries(SecurityContext,ModelManager,Factory,Serializer)</text><ellipse cx="1127" cy="111.4326" fill="#84BE84" rx="3" ry="3" style="stroke: #038048; stroke-width: 1.0;"/><text fill="#000000" font-family="sans-serif" font-size="11" lengthAdjust="spacingAndGlyphs" textLength="476" x="1136" y="114.0898">Promise getTransactionRegistry(SecurityContext,string,ModelManager,Factory,Serializer)</text><ellipse cx="1127" cy="124.3877" fill="#84BE84" rx="3" ry="3" style="stroke: #038048; stroke-width: 1.0;"/><text fill="#000000" font-family="sans-serif" font-size="11" lengthAdjust="spacingAndGlyphs" textLength="514" x="1136" y="127.0449">Promise addTransactionRegistry(SecurityContext,string,string,ModelManager,Factory,Serializer)</text><ellipse cx="1127" cy="137.3428" fill="#84BE84" rx="3" ry="3" style="stroke: #038048; stroke-width: 1.0;"/><text fill="#000000" font-family="sans-serif" font-size="11" lengthAdjust="spacingAndGlyphs" textLength="430" x="1136" y="140">void constructor(string,string,SecurityContext,ModelManager,Factory,Serializer)</text><ellipse cx="1127" cy="150.2979" fill="#84BE84" rx="3" ry="3" style="stroke: #038048; stroke-width: 1.0;"/><text fill="#000000" font-family="sans-serif" font-size="11" lengthAdjust="spacingAndGlyphs" textLength="139" x="1136" y="152.9551">void add(Resource,string)</text><ellipse cx="1127" cy="163.2529" fill="#84BE84" rx="3" ry="3" style="stroke: #038048; stroke-width: 1.0;"/><text fill="#000000" font-family="sans-serif" font-size="11" lengthAdjust="spacingAndGlyphs" textLength="126" x="1136" y="165.9102">void addAll(Resource[])</text><ellipse cx="1127" cy="176.208" fill="#84BE84" rx="3" ry="3" style="stroke: #038048; stroke-width: 1.0;"/><text fill="#000000" font-family="sans-serif" font-size="11" lengthAdjust="spacingAndGlyphs" textLength="121" x="1136" y="178.8652">void update(Resource)</text><ellipse cx="1127" cy="189.1631" fill="#84BE84" rx="3" ry="3" style="stroke: #038048; stroke-width: 1.0;"/><text fill="#000000" font-family="sans-serif" font-size="11" lengthAdjust="spacingAndGlyphs" textLength="143" x="1136" y="191.8203">void updateAll(Resource[])</text><ellipse cx="1127" cy="202.1182" fill="#84BE84" rx="3" ry="3" style="stroke: #038048; stroke-width: 1.0;"/><text fill="#000000" font-family="sans-serif" font-size="11" lengthAdjust="spacingAndGlyphs" textLength="74" x="1136" y="204.7754">void remove()</text><ellipse cx="1127" cy="215.0732" fill="#84BE84" rx="3" ry="3" style="stroke: #038048; stroke-width: 1.0;"/><text fill="#000000" font-family="sans-serif" font-size="11" lengthAdjust="spacingAndGlyphs" textLength="88" x="1136" y="217.7305">void removeAll()</text><!--class BusinessNetworkConnection--><rect fill="#FEFECE" filter="url(#fdqufr5)" height="255.2813" style="stroke: #A80036; stroke-width: 1.5;" width="307" x="1691.5" y="8"/><ellipse cx="1760.75" cy="24" fill="#ADD1B2" rx="11" ry="11" style="stroke: #A80036; stroke-width: 1.0;"/><path d="M1763.7231,29.6431 Q1763.1421,29.9419 1762.5029,30.0913 Q1761.8638,30.2407 1761.1582,30.2407 Q1758.6514,30.2407 1757.3315,28.5889 Q1756.0117,26.937 1756.0117,23.8159 Q1756.0117,20.6865 1757.3315,19.0347 Q1758.6514,17.3828 1761.1582,17.3828 Q1761.8638,17.3828 1762.5112,17.5322 Q1763.1587,17.6816 1763.7231,17.9805 L1763.7231,20.7031 Q1763.0923,20.1221 1762.4988,19.8523 Q1761.9053,19.5825 1761.2744,19.5825 Q1759.9297,19.5825 1759.2449,20.6492 Q1758.5601,21.7158 1758.5601,23.8159 Q1758.5601,25.9077 1759.2449,26.9744 Q1759.9297,28.041 1761.2744,28.041 Q1761.9053,28.041 1762.4988,27.7712 Q1763.0923,27.5015 1763.7231,26.9204 Z "/><text fill="#000000" font-family="sans-serif" font-size="12" lengthAdjust="spacingAndGlyphs" textLength="160" x="1781.25" y="28.5352">BusinessNetworkConnection</text><line style="stroke: #A80036; stroke-width: 1.5;" x1="1692.5" x2="1997.5" y1="40" y2="40"/><line style="stroke: #A80036; stroke-width: 1.5;" x1="1692.5" x2="1997.5" y1="48" y2="48"/><ellipse cx="1702.5" cy="59.9775" fill="#84BE84" rx="3" ry="3" style="stroke: #038048; stroke-width: 1.0;"/><text fill="#000000" font-family="sans-serif" font-size="11" lengthAdjust="spacingAndGlyphs" textLength="217" x="1711.5" y="62.6348">void constructor(Object,Object,boolean)</text><ellipse cx="1702.5" cy="72.9326" fill="#84BE84" rx="3" ry="3" style="stroke: #038048; stroke-width: 1.0;"/><text fill="#000000" font-family="sans-serif" font-size="11" lengthAdjust="spacingAndGlyphs" textLength="262" x="1711.5" y="75.5898">BusinessNetworkDefinition getBusinessNetwork()</text><ellipse cx="1702.5" cy="85.8877" fill="#84BE84" rx="3" ry="3" style="stroke: #038048; stroke-width: 1.0;"/><text fill="#000000" font-family="sans-serif" font-size="11" lengthAdjust="spacingAndGlyphs" textLength="254" x="1711.5" y="88.5449">Promise getAllAssetRegistries(SecurityContext)</text><ellipse cx="1702.5" cy="98.8428" fill="#84BE84" rx="3" ry="3" style="stroke: #038048; stroke-width: 1.0;"/><text fill="#000000" font-family="sans-serif" font-size="11" lengthAdjust="spacingAndGlyphs" textLength="177" x="1711.5" y="101.5">Promise getAssetRegistry(string)</text><ellipse cx="1702.5" cy="111.7979" fill="#84BE84" rx="3" ry="3" style="stroke: #038048; stroke-width: 1.0;"/><text fill="#000000" font-family="sans-serif" font-size="11" lengthAdjust="spacingAndGlyphs" textLength="192" x="1711.5" y="114.4551">Promise existsAssetRegistry(string)</text><ellipse cx="1702.5" cy="124.7529" fill="#84BE84" rx="3" ry="3" style="stroke: #038048; stroke-width: 1.0;"/><text fill="#000000" font-family="sans-serif" font-size="11" lengthAdjust="spacingAndGlyphs" textLength="215" x="1711.5" y="127.4102">Promise addAssetRegistry(string,string)</text><ellipse cx="1702.5" cy="137.708" fill="#84BE84" rx="3" ry="3" style="stroke: #038048; stroke-width: 1.0;"/><text fill="#000000" font-family="sans-serif" font-size="11" lengthAdjust="spacingAndGlyphs" textLength="281" x="1711.5" y="140.3652">Promise getAllParticipantRegistries(SecurityContext)</text><ellipse cx="1702.5" cy="150.6631" fill="#84BE84" rx="3" ry="3" style="stroke: #038048; stroke-width: 1.0;"/><text fill="#000000" font-family="sans-serif" font-size="11" lengthAdjust="spacingAndGlyphs" textLength="204" x="1711.5" y="153.3203">Promise getParticipantRegistry(string)</text><ellipse cx="1702.5" cy="163.6182" fill="#84BE84" rx="3" ry="3" style="stroke: #038048; stroke-width: 1.0;"/><text fill="#000000" font-family="sans-serif" font-size="11" lengthAdjust="spacingAndGlyphs" textLength="242" x="1711.5" y="166.2754">Promise addParticipantRegistry(string,string)</text><ellipse cx="1702.5" cy="176.5732" fill="#84BE84" rx="3" ry="3" style="stroke: #038048; stroke-width: 1.0;"/><text fill="#000000" font-family="sans-serif" font-size="11" lengthAdjust="spacingAndGlyphs" textLength="179" x="1711.5" y="179.2305">Promise getTransactionRegistry()</text><ellipse cx="1702.5" cy="189.5283" fill="#84BE84" rx="3" ry="3" style="stroke: #038048; stroke-width: 1.0;"/><text fill="#000000" font-family="sans-serif" font-size="11" lengthAdjust="spacingAndGlyphs" textLength="234" x="1711.5" y="192.1855">Promise connect(string,string,string,string)</text><ellipse cx="1702.5" cy="202.4834" fill="#84BE84" rx="3" ry="3" style="stroke: #038048; stroke-width: 1.0;"/><text fill="#000000" font-family="sans-serif" font-size="11" lengthAdjust="spacingAndGlyphs" textLength="113" x="1711.5" y="205.1406">Promise disconnect()</text><ellipse cx="1702.5" cy="215.4385" fill="#84BE84" rx="3" ry="3" style="stroke: #038048; stroke-width: 1.0;"/><text fill="#000000" font-family="sans-serif" font-size="11" lengthAdjust="spacingAndGlyphs" textLength="205" x="1711.5" y="218.0957">Promise submitTransaction(Resource)</text><ellipse cx="1702.5" cy="228.3936" fill="#84BE84" rx="3" ry="3" style="stroke: #038048; stroke-width: 1.0;"/><text fill="#000000" font-family="sans-serif" font-size="11" lengthAdjust="spacingAndGlyphs" textLength="78" x="1711.5" y="231.0508">Promise ping()</text><ellipse cx="1702.5" cy="241.3486" fill="#84BE84" rx="3" ry="3" style="stroke: #038048; stroke-width: 1.0;"/><text fill="#000000" font-family="sans-serif" font-size="11" lengthAdjust="spacingAndGlyphs" textLength="236" x="1711.5" y="244.0059">Promise issueIdentity(string,object,boolean)</text><ellipse cx="1702.5" cy="254.3037" fill="#84BE84" rx="3" ry="3" style="stroke: #038048; stroke-width: 1.0;"/><text fill="#000000" font-family="sans-serif" font-size="11" lengthAdjust="spacingAndGlyphs" textLength="162" x="1711.5" y="256.9609">Promise revokeIdentity(string)</text><!--class EventEmitter--><rect fill="#FEFECE" filter="url(#fdqufr5)" height="48" style="stroke: #A80036; stroke-width: 1.5;" width="104" x="1793" y="439.5"/><ellipse cx="1808" cy="455.5" fill="#ADD1B2" rx="11" ry="11" style="stroke: #A80036; stroke-width: 1.0;"/><path d="M1810.9731,461.1431 Q1810.3921,461.4419 1809.7529,461.5913 Q1809.1138,461.7407 1808.4082,461.7407 Q1805.9014,461.7407 1804.5815,460.0889 Q1803.2617,458.437 1803.2617,455.3159 Q1803.2617,452.1865 1804.5815,450.5347 Q1805.9014,448.8828 1808.4082,448.8828 Q1809.1138,448.8828 1809.7612,449.0322 Q1810.4087,449.1816 1810.9731,449.4805 L1810.9731,452.2031 Q1810.3423,451.6221 1809.7488,451.3523 Q1809.1553,451.0825 1808.5244,451.0825 Q1807.1797,451.0825 1806.4949,452.1492 Q1805.8101,453.2158 1805.8101,455.3159 Q1805.8101,457.4077 1806.4949,458.4744 Q1807.1797,459.541 1808.5244,459.541 Q1809.1553,459.541 1809.7488,459.2712 Q1810.3423,459.0015 1810.9731,458.4204 Z "/><text fill="#000000" font-family="sans-serif" font-size="12" lengthAdjust="spacingAndGlyphs" textLength="72" x="1822" y="460.0352">EventEmitter</text><line style="stroke: #A80036; stroke-width: 1.5;" x1="1794" x2="1896" y1="471.5" y2="471.5"/><line style="stroke: #A80036; stroke-width: 1.5;" x1="1794" x2="1896" y1="479.5" y2="479.5"/><path d="M353.777,192.171 C410.6,225.548 485.823,269.733 558.952,312.688 " fill="none" style="stroke: #A80036; stroke-width: 1.0;"/><polygon fill="none" points="562.79,306.824,576.49,322.989,555.699,318.896,562.79,306.824" style="stroke: #A80036; stroke-width: 1.0;"/><path d="M814,185.658 C814,217.214 814,260.139 814,302.766 " fill="none" style="stroke: #A80036; stroke-width: 1.0;"/><polygon fill="none" points="821,302.95,814,322.949,807,302.949,821,302.95" style="stroke: #A80036; stroke-width: 1.0;"/><path d="M1231.59,224.506 C1183.69,251.8 1129.51,282.681 1076.42,312.941 " fill="none" style="stroke: #A80036; stroke-width: 1.0;"/><polygon fill="none" points="1079.69,319.134,1058.85,322.955,1072.76,306.971,1079.69,319.134" style="stroke: #A80036; stroke-width: 1.0;"/><path d="M1845,263.007 C1845,318.3 1845,379.499 1845,419.345 " fill="none" style="stroke: #A80036; stroke-width: 1.0;"/><polygon fill="none" points="1852,419.367,1845,439.367,1838,419.367,1852,419.367" style="stroke: #A80036; stroke-width: 1.0;"/></g></svg>