<?xml version="1.0" encoding="UTF-8" standalone="no"?><svg xmlns="http://www.w3.org/2000/svg" xmlns:xlink="http://www.w3.org/1999/xlink" contentScriptType="application/ecmascript" contentStyleType="text/css" height="186px" preserveAspectRatio="none" style="width:149px;height:186px;" version="1.1" viewBox="0 0 149 186" width="149px" zoomAndPan="magnify"><defs><filter height="300%" id="flquz4q" width="300%" x="-1" y="-1"><feGaussianBlur result="blurOut" stdDeviation="2.0"/><feColorMatrix in="blurOut" result="blurOut2" type="matrix" values="0 0 0 0 0 0 0 0 0 0 0 0 0 0 0 0 0 0 .4 0"/><feOffset dx="4.0" dy="4.0" in="blurOut2" result="blurOut3"/><feBlend in="SourceGraphic" in2="blurOut3" mode="normal"/></filter></defs><g><!--class Concept--><rect fill="#FEFECE" filter="url(#flquz4q)" height="60.9551" style="stroke: #A80036; stroke-width: 1.5;" width="134" x="6" y="8"/><ellipse cx="45.75" cy="24" fill="#ADD1B2" rx="11" ry="11" style="stroke: #A80036; stroke-width: 1.0;"/><path d="M48.7231,29.6431 Q48.1421,29.9419 47.5029,30.0913 Q46.8638,30.2407 46.1582,30.2407 Q43.6514,30.2407 42.3315,28.5889 Q41.0117,26.937 41.0117,23.8159 Q41.0117,20.6865 42.3315,19.0347 Q43.6514,17.3828 46.1582,17.3828 Q46.8638,17.3828 47.5112,17.5322 Q48.1587,17.6816 48.7231,17.9805 L48.7231,20.7031 Q48.0923,20.1221 47.4988,19.8523 Q46.9053,19.5825 46.2744,19.5825 Q44.9297,19.5825 44.2449,20.6492 Q43.5601,21.7158 43.5601,23.8159 Q43.5601,25.9077 44.2449,26.9744 Q44.9297,28.041 46.2744,28.041 Q46.9053,28.041 47.4988,27.7712 Q48.0923,27.5015 48.7231,26.9204 Z "/><text fill="#000000" font-family="sans-serif" font-size="12" lengthAdjust="spacingAndGlyphs" textLength="47" x="65.25" y="28.5352">Concept</text><line style="stroke: #A80036; stroke-width: 1.5;" x1="7" x2="139" y1="40" y2="40"/><line style="stroke: #A80036; stroke-width: 1.5;" x1="7" x2="139" y1="48" y2="48"/><ellipse cx="17" cy="59.9775" fill="#84BE84" rx="3" ry="3" style="stroke: #038048; stroke-width: 1.0;"/><text fill="#000000" font-family="sans-serif" font-size="11" lengthAdjust="spacingAndGlyphs" textLength="108" x="26" y="62.6348">boolean isConcept()</text><!--class Typed--><rect fill="#FEFECE" filter="url(#flquz4q)" height="48" style="stroke: #A80036; stroke-width: 1.5;" width="69" x="38.5" y="129"/><ellipse cx="53.5" cy="145" fill="#ADD1B2" rx="11" ry="11" style="stroke: #A80036; stroke-width: 1.0;"/><path d="M56.4731,150.6431 Q55.8921,150.9419 55.2529,151.0913 Q54.6138,151.2407 53.9082,151.2407 Q51.4014,151.2407 50.0815,149.5889 Q48.7617,147.937 48.7617,144.8159 Q48.7617,141.6865 50.0815,140.0347 Q51.4014,138.3828 53.9082,138.3828 Q54.6138,138.3828 55.2612,138.5322 Q55.9087,138.6816 56.4731,138.9805 L56.4731,141.7031 Q55.8423,141.1221 55.2488,140.8523 Q54.6553,140.5825 54.0244,140.5825 Q52.6797,140.5825 51.9949,141.6492 Q51.3101,142.7158 51.3101,144.8159 Q51.3101,146.9077 51.9949,147.9744 Q52.6797,149.041 54.0244,149.041 Q54.6553,149.041 55.2488,148.7712 Q55.8423,148.5015 56.4731,147.9204 Z "/><text fill="#000000" font-family="sans-serif" font-size="12" lengthAdjust="spacingAndGlyphs" textLength="37" x="67.5" y="149.5352">Typed</text><line style="stroke: #A80036; stroke-width: 1.5;" x1="39.5" x2="106.5" y1="161" y2="161"/><line style="stroke: #A80036; stroke-width: 1.5;" x1="39.5" x2="106.5" y1="169" y2="169"/><path d="M73,69.058 C73,81.1313 73,95.3402 73,108.5536 " fill="none" style="stroke: #A80036; stroke-width: 1.0;"/><polygon fill="none" points="80.0001,108.6686,73,128.6686,66.0001,108.6686,80.0001,108.6686" style="stroke: #A80036; stroke-width: 1.0;"/></g></svg>