<?xml version="1.0" encoding="UTF-8" standalone="no"?><svg xmlns="http://www.w3.org/2000/svg" xmlns:xlink="http://www.w3.org/1999/xlink" contentScriptType="application/ecmascript" contentStyleType="text/css" height="398px" preserveAspectRatio="none" style="width:1061px;height:398px;" version="1.1" viewBox="0 0 1061 398" width="1061px" zoomAndPan="magnify"><defs><filter height="300%" id="fq4d6pa" width="300%" x="-1" y="-1"><feGaussianBlur result="blurOut" stdDeviation="2.0"/><feColorMatrix in="blurOut" result="blurOut2" type="matrix" values="0 0 0 0 0 0 0 0 0 0 0 0 0 0 0 0 0 0 .4 0"/><feOffset dx="4.0" dy="4.0" in="blurOut2" result="blurOut3"/><feBlend in="SourceGraphic" in2="blurOut3" mode="normal"/></filter></defs><g><!--class Relationship--><rect fill="#FEFECE" filter="url(#fq4d6pa)" height="73.9102" style="stroke: #A80036; stroke-width: 1.5;" width="155" x="6" y="207"/><ellipse cx="44.85" cy="223" fill="#ADD1B2" rx="11" ry="11" style="stroke: #A80036; stroke-width: 1.0;"/><path d="M47.8231,228.6431 Q47.2421,228.9419 46.6029,229.0913 Q45.9638,229.2407 45.2582,229.2407 Q42.7514,229.2407 41.4315,227.5889 Q40.1117,225.937 40.1117,222.8159 Q40.1117,219.6865 41.4315,218.0347 Q42.7514,216.3828 45.2582,216.3828 Q45.9638,216.3828 46.6112,216.5322 Q47.2587,216.6816 47.8231,216.9805 L47.8231,219.7031 Q47.1923,219.1221 46.5988,218.8523 Q46.0053,218.5825 45.3744,218.5825 Q44.0297,218.5825 43.3449,219.6492 Q42.6601,220.7158 42.6601,222.8159 Q42.6601,224.9077 43.3449,225.9744 Q44.0297,227.041 45.3744,227.041 Q46.0053,227.041 46.5988,226.7712 Q47.1923,226.5015 47.8231,225.9204 Z "/><text fill="#000000" font-family="sans-serif" font-size="12" lengthAdjust="spacingAndGlyphs" textLength="70" x="64.15" y="227.5352">Relationship</text><line style="stroke: #A80036; stroke-width: 1.5;" x1="7" x2="160" y1="239" y2="239"/><line style="stroke: #A80036; stroke-width: 1.5;" x1="7" x2="160" y1="247" y2="247"/><ellipse cx="17" cy="258.9775" fill="#84BE84" rx="3" ry="3" style="stroke: #038048; stroke-width: 1.0;"/><text fill="#000000" font-family="sans-serif" font-size="11" lengthAdjust="spacingAndGlyphs" textLength="86" x="26" y="261.6348">String toString()</text><ellipse cx="17" cy="271.9326" fill="#84BE84" rx="3" ry="3" style="stroke: #038048; stroke-width: 1.0;"/><text fill="#000000" font-family="sans-serif" font-size="11" lengthAdjust="spacingAndGlyphs" textLength="129" x="26" y="274.5898">boolean isRelationship()</text><!--class Identifiable--><rect fill="#FEFECE" filter="url(#fq4d6pa)" height="48" style="stroke: #A80036; stroke-width: 1.5;" width="96" x="126.5" y="341"/><ellipse cx="141.5" cy="357" fill="#ADD1B2" rx="11" ry="11" style="stroke: #A80036; stroke-width: 1.0;"/><path d="M144.4731,362.6431 Q143.8921,362.9419 143.2529,363.0913 Q142.6138,363.2407 141.9082,363.2407 Q139.4014,363.2407 138.0815,361.5889 Q136.7617,359.937 136.7617,356.8159 Q136.7617,353.6865 138.0815,352.0347 Q139.4014,350.3828 141.9082,350.3828 Q142.6138,350.3828 143.2612,350.5322 Q143.9087,350.6816 144.4731,350.9805 L144.4731,353.7031 Q143.8423,353.1221 143.2488,352.8523 Q142.6553,352.5825 142.0244,352.5825 Q140.6797,352.5825 139.9949,353.6492 Q139.3101,354.7158 139.3101,356.8159 Q139.3101,358.9077 139.9949,359.9744 Q140.6797,361.041 142.0244,361.041 Q142.6553,361.041 143.2488,360.7712 Q143.8423,360.5015 144.4731,359.9204 Z "/><text fill="#000000" font-family="sans-serif" font-size="12" lengthAdjust="spacingAndGlyphs" textLength="64" x="155.5" y="361.5352">Identifiable</text><line style="stroke: #A80036; stroke-width: 1.5;" x1="127.5" x2="221.5" y1="373" y2="373"/><line style="stroke: #A80036; stroke-width: 1.5;" x1="127.5" x2="221.5" y1="381" y2="381"/><!--class Resource--><rect fill="#FEFECE" filter="url(#fq4d6pa)" height="73.9102" style="stroke: #A80036; stroke-width: 1.5;" width="139" x="196" y="207"/><ellipse cx="235.3" cy="223" fill="#ADD1B2" rx="11" ry="11" style="stroke: #A80036; stroke-width: 1.0;"/><path d="M238.2731,228.6431 Q237.6921,228.9419 237.0529,229.0913 Q236.4138,229.2407 235.7082,229.2407 Q233.2014,229.2407 231.8815,227.5889 Q230.5617,225.937 230.5617,222.8159 Q230.5617,219.6865 231.8815,218.0347 Q233.2014,216.3828 235.7082,216.3828 Q236.4138,216.3828 237.0612,216.5322 Q237.7087,216.6816 238.2731,216.9805 L238.2731,219.7031 Q237.6423,219.1221 237.0488,218.8523 Q236.4553,218.5825 235.8244,218.5825 Q234.4797,218.5825 233.7949,219.6492 Q233.1101,220.7158 233.1101,222.8159 Q233.1101,224.9077 233.7949,225.9744 Q234.4797,227.041 235.8244,227.041 Q236.4553,227.041 237.0488,226.7712 Q237.6423,226.5015 238.2731,225.9204 Z "/><text fill="#000000" font-family="sans-serif" font-size="12" lengthAdjust="spacingAndGlyphs" textLength="53" x="254.7" y="227.5352">Resource</text><line style="stroke: #A80036; stroke-width: 1.5;" x1="197" x2="334" y1="239" y2="239"/><line style="stroke: #A80036; stroke-width: 1.5;" x1="197" x2="334" y1="247" y2="247"/><ellipse cx="207" cy="258.9775" fill="#84BE84" rx="3" ry="3" style="stroke: #038048; stroke-width: 1.0;"/><text fill="#000000" font-family="sans-serif" font-size="11" lengthAdjust="spacingAndGlyphs" textLength="86" x="216" y="261.6348">String toString()</text><ellipse cx="207" cy="271.9326" fill="#84BE84" rx="3" ry="3" style="stroke: #038048; stroke-width: 1.0;"/><text fill="#000000" font-family="sans-serif" font-size="11" lengthAdjust="spacingAndGlyphs" textLength="113" x="216" y="274.5898">boolean isResource()</text><!--class ValidatedResource--><rect fill="#FEFECE" filter="url(#fq4d6pa)" height="86.8652" style="stroke: #A80036; stroke-width: 1.5;" width="218" x="156.5" y="34"/><ellipse cx="207.25" cy="50" fill="#ADD1B2" rx="11" ry="11" style="stroke: #A80036; stroke-width: 1.0;"/><path d="M210.2231,55.6431 Q209.6421,55.9419 209.0029,56.0913 Q208.3638,56.2407 207.6582,56.2407 Q205.1514,56.2407 203.8315,54.5889 Q202.5117,52.937 202.5117,49.8159 Q202.5117,46.6865 203.8315,45.0347 Q205.1514,43.3828 207.6582,43.3828 Q208.3638,43.3828 209.0112,43.5322 Q209.6587,43.6816 210.2231,43.9805 L210.2231,46.7031 Q209.5923,46.1221 208.9988,45.8523 Q208.4053,45.5825 207.7744,45.5825 Q206.4297,45.5825 205.7449,46.6492 Q205.0601,47.7158 205.0601,49.8159 Q205.0601,51.9077 205.7449,52.9744 Q206.4297,54.041 207.7744,54.041 Q208.4053,54.041 208.9988,53.7712 Q209.5923,53.5015 210.2231,52.9204 Z "/><text fill="#000000" font-family="sans-serif" font-size="12" lengthAdjust="spacingAndGlyphs" textLength="108" x="227.75" y="54.5352">ValidatedResource</text><line style="stroke: #A80036; stroke-width: 1.5;" x1="157.5" x2="373.5" y1="66" y2="66"/><line style="stroke: #A80036; stroke-width: 1.5;" x1="157.5" x2="373.5" y1="74" y2="74"/><ellipse cx="167.5" cy="85.9775" fill="#84BE84" rx="3" ry="3" style="stroke: #038048; stroke-width: 1.0;"/><text fill="#000000" font-family="sans-serif" font-size="11" lengthAdjust="spacingAndGlyphs" textLength="192" x="176.5" y="88.6348">void setPropertyValue(string,string)</text><ellipse cx="167.5" cy="98.9326" fill="#84BE84" rx="3" ry="3" style="stroke: #038048; stroke-width: 1.0;"/><text fill="#000000" font-family="sans-serif" font-size="11" lengthAdjust="spacingAndGlyphs" textLength="180" x="176.5" y="101.5898">void addArrayValue(string,string)</text><ellipse cx="167.5" cy="111.8877" fill="#84BE84" rx="3" ry="3" style="stroke: #038048; stroke-width: 1.0;"/><text fill="#000000" font-family="sans-serif" font-size="11" lengthAdjust="spacingAndGlyphs" textLength="75" x="176.5" y="114.5449">void validate()</text><!--class Concept--><rect fill="#FEFECE" filter="url(#fq4d6pa)" height="60.9551" style="stroke: #A80036; stroke-width: 1.5;" width="134" x="451.5" y="213.5"/><ellipse cx="491.25" cy="229.5" fill="#ADD1B2" rx="11" ry="11" style="stroke: #A80036; stroke-width: 1.0;"/><path d="M494.2231,235.1431 Q493.6421,235.4419 493.0029,235.5913 Q492.3638,235.7407 491.6582,235.7407 Q489.1514,235.7407 487.8315,234.0889 Q486.5117,232.437 486.5117,229.3159 Q486.5117,226.1865 487.8315,224.5347 Q489.1514,222.8828 491.6582,222.8828 Q492.3638,222.8828 493.0112,223.0322 Q493.6587,223.1816 494.2231,223.4805 L494.2231,226.2031 Q493.5923,225.6221 492.9988,225.3523 Q492.4053,225.0825 491.7744,225.0825 Q490.4297,225.0825 489.7449,226.1492 Q489.0601,227.2158 489.0601,229.3159 Q489.0601,231.4077 489.7449,232.4744 Q490.4297,233.541 491.7744,233.541 Q492.4053,233.541 492.9988,233.2712 Q493.5923,233.0015 494.2231,232.4204 Z "/><text fill="#000000" font-family="sans-serif" font-size="12" lengthAdjust="spacingAndGlyphs" textLength="47" x="510.75" y="234.0352">Concept</text><line style="stroke: #A80036; stroke-width: 1.5;" x1="452.5" x2="584.5" y1="245.5" y2="245.5"/><line style="stroke: #A80036; stroke-width: 1.5;" x1="452.5" x2="584.5" y1="253.5" y2="253.5"/><ellipse cx="462.5" cy="265.4775" fill="#84BE84" rx="3" ry="3" style="stroke: #038048; stroke-width: 1.0;"/><text fill="#000000" font-family="sans-serif" font-size="11" lengthAdjust="spacingAndGlyphs" textLength="108" x="471.5" y="268.1348">boolean isConcept()</text><!--class Typed--><rect fill="#FEFECE" filter="url(#fq4d6pa)" height="48" style="stroke: #A80036; stroke-width: 1.5;" width="69" x="484" y="341"/><ellipse cx="499" cy="357" fill="#ADD1B2" rx="11" ry="11" style="stroke: #A80036; stroke-width: 1.0;"/><path d="M501.9731,362.6431 Q501.3921,362.9419 500.7529,363.0913 Q500.1138,363.2407 499.4082,363.2407 Q496.9014,363.2407 495.5815,361.5889 Q494.2617,359.937 494.2617,356.8159 Q494.2617,353.6865 495.5815,352.0347 Q496.9014,350.3828 499.4082,350.3828 Q500.1138,350.3828 500.7612,350.5322 Q501.4087,350.6816 501.9731,350.9805 L501.9731,353.7031 Q501.3423,353.1221 500.7488,352.8523 Q500.1553,352.5825 499.5244,352.5825 Q498.1797,352.5825 497.4949,353.6492 Q496.8101,354.7158 496.8101,356.8159 Q496.8101,358.9077 497.4949,359.9744 Q498.1797,361.041 499.5244,361.041 Q500.1553,361.041 500.7488,360.7712 Q501.3423,360.5015 501.9731,359.9204 Z "/><text fill="#000000" font-family="sans-serif" font-size="12" lengthAdjust="spacingAndGlyphs" textLength="37" x="513" y="361.5352">Typed</text><line style="stroke: #A80036; stroke-width: 1.5;" x1="485" x2="552" y1="373" y2="373"/><line style="stroke: #A80036; stroke-width: 1.5;" x1="485" x2="552" y1="381" y2="381"/><!--class ValidatedConcept--><rect fill="#FEFECE" filter="url(#fq4d6pa)" height="86.8652" style="stroke: #A80036; stroke-width: 1.5;" width="218" x="409.5" y="34"/><ellipse cx="463.25" cy="50" fill="#ADD1B2" rx="11" ry="11" style="stroke: #A80036; stroke-width: 1.0;"/><path d="M466.2231,55.6431 Q465.6421,55.9419 465.0029,56.0913 Q464.3638,56.2407 463.6582,56.2407 Q461.1514,56.2407 459.8315,54.5889 Q458.5117,52.937 458.5117,49.8159 Q458.5117,46.6865 459.8315,45.0347 Q461.1514,43.3828 463.6582,43.3828 Q464.3638,43.3828 465.0112,43.5322 Q465.6587,43.6816 466.2231,43.9805 L466.2231,46.7031 Q465.5923,46.1221 464.9988,45.8523 Q464.4053,45.5825 463.7744,45.5825 Q462.4297,45.5825 461.7449,46.6492 Q461.0601,47.7158 461.0601,49.8159 Q461.0601,51.9077 461.7449,52.9744 Q462.4297,54.041 463.7744,54.041 Q464.4053,54.041 464.9988,53.7712 Q465.5923,53.5015 466.2231,52.9204 Z "/><text fill="#000000" font-family="sans-serif" font-size="12" lengthAdjust="spacingAndGlyphs" textLength="102" x="483.75" y="54.5352">ValidatedConcept</text><line style="stroke: #A80036; stroke-width: 1.5;" x1="410.5" x2="626.5" y1="66" y2="66"/><line style="stroke: #A80036; stroke-width: 1.5;" x1="410.5" x2="626.5" y1="74" y2="74"/><ellipse cx="420.5" cy="85.9775" fill="#84BE84" rx="3" ry="3" style="stroke: #038048; stroke-width: 1.0;"/><text fill="#000000" font-family="sans-serif" font-size="11" lengthAdjust="spacingAndGlyphs" textLength="192" x="429.5" y="88.6348">void setPropertyValue(string,string)</text><ellipse cx="420.5" cy="98.9326" fill="#84BE84" rx="3" ry="3" style="stroke: #038048; stroke-width: 1.0;"/><text fill="#000000" font-family="sans-serif" font-size="11" lengthAdjust="spacingAndGlyphs" textLength="180" x="429.5" y="101.5898">void addArrayValue(string,string)</text><ellipse cx="420.5" cy="111.8877" fill="#84BE84" rx="3" ry="3" style="stroke: #038048; stroke-width: 1.0;"/><text fill="#000000" font-family="sans-serif" font-size="11" lengthAdjust="spacingAndGlyphs" textLength="75" x="429.5" y="114.5449">void validate()</text><!--class Factory--><rect fill="#FEFECE" filter="url(#fq4d6pa)" height="138.6855" style="stroke: #A80036; stroke-width: 1.5;" width="390" x="662.5" y="8"/><ellipse cx="832.75" cy="24" fill="#ADD1B2" rx="11" ry="11" style="stroke: #A80036; stroke-width: 1.0;"/><path d="M835.7231,29.6431 Q835.1421,29.9419 834.5029,30.0913 Q833.8638,30.2407 833.1582,30.2407 Q830.6514,30.2407 829.3315,28.5889 Q828.0117,26.937 828.0117,23.8159 Q828.0117,20.6865 829.3315,19.0347 Q830.6514,17.3828 833.1582,17.3828 Q833.8638,17.3828 834.5112,17.5322 Q835.1587,17.6816 835.7231,17.9805 L835.7231,20.7031 Q835.0923,20.1221 834.4988,19.8523 Q833.9053,19.5825 833.2744,19.5825 Q831.9297,19.5825 831.2449,20.6492 Q830.5601,21.7158 830.5601,23.8159 Q830.5601,25.9077 831.2449,26.9744 Q831.9297,28.041 833.2744,28.041 Q833.9053,28.041 834.4988,27.7712 Q835.0923,27.5015 835.7231,26.9204 Z "/><text fill="#000000" font-family="sans-serif" font-size="12" lengthAdjust="spacingAndGlyphs" textLength="41" x="853.25" y="28.5352">Factory</text><line style="stroke: #A80036; stroke-width: 1.5;" x1="663.5" x2="1051.5" y1="40" y2="40"/><line style="stroke: #A80036; stroke-width: 1.5;" x1="663.5" x2="1051.5" y1="48" y2="48"/><ellipse cx="673.5" cy="59.9775" fill="#84BE84" rx="3" ry="3" style="stroke: #038048; stroke-width: 1.0;"/><text fill="#000000" font-family="sans-serif" font-size="11" lengthAdjust="spacingAndGlyphs" textLength="176" x="682.5" y="62.6348">void constructor(ModelManager)</text><ellipse cx="673.5" cy="72.9326" fill="#84BE84" rx="3" ry="3" style="stroke: #038048; stroke-width: 1.0;"/><text fill="#000000" font-family="sans-serif" font-size="11" lengthAdjust="spacingAndGlyphs" textLength="359" x="682.5" y="75.5898">Resource newInstance(string,string,string,Object,boolean,boolean)</text><ellipse cx="673.5" cy="85.8877" fill="#84BE84" rx="3" ry="3" style="stroke: #038048; stroke-width: 1.0;"/><text fill="#000000" font-family="sans-serif" font-size="11" lengthAdjust="spacingAndGlyphs" textLength="364" x="682.5" y="88.5449">Resource newResource(string,string,string,Object,boolean,boolean)</text><ellipse cx="673.5" cy="98.8428" fill="#84BE84" rx="3" ry="3" style="stroke: #038048; stroke-width: 1.0;"/><text fill="#000000" font-family="sans-serif" font-size="11" lengthAdjust="spacingAndGlyphs" textLength="324" x="682.5" y="101.5">Resource newConcept(string,string,Object,boolean,boolean)</text><ellipse cx="673.5" cy="111.7979" fill="#84BE84" rx="3" ry="3" style="stroke: #038048; stroke-width: 1.0;"/><text fill="#000000" font-family="sans-serif" font-size="11" lengthAdjust="spacingAndGlyphs" textLength="266" x="682.5" y="114.4551">Relationship newRelationship(string,string,string)</text><ellipse cx="673.5" cy="124.7529" fill="#84BE84" rx="3" ry="3" style="stroke: #038048; stroke-width: 1.0;"/><text fill="#000000" font-family="sans-serif" font-size="11" lengthAdjust="spacingAndGlyphs" textLength="332" x="682.5" y="127.4102">Resource newTransaction(string,string,string,Object,boolean)</text><ellipse cx="673.5" cy="137.708" fill="#84BE84" rx="3" ry="3" style="stroke: #038048; stroke-width: 1.0;"/><text fill="#000000" font-family="sans-serif" font-size="11" lengthAdjust="spacingAndGlyphs" textLength="83" x="682.5" y="140.3652">Object toJSON()</text><path d="M111.05,281.027 C121.612,294.8388 133.711,310.6605 144.492,324.759 " fill="none" style="stroke: #A80036; stroke-width: 1.0;"/><polygon fill="none" points="150.209,320.7111,156.797,340.8505,139.088,329.2155,150.209,320.7111" style="stroke: #A80036; stroke-width: 1.0;"/><path d="M237.95,281.027 C227.388,294.8388 215.289,310.6605 204.508,324.759 " fill="none" style="stroke: #A80036; stroke-width: 1.0;"/><polygon fill="none" points="209.912,329.2155,192.203,340.8505,198.791,320.7111,209.912,329.2155" style="stroke: #A80036; stroke-width: 1.0;"/><path d="M265.5,121.291 C265.5,141.211 265.5,165.177 265.5,186.556 " fill="none" style="stroke: #A80036; stroke-width: 1.0;"/><polygon fill="none" points="272.5,186.826,265.5,206.826,258.5,186.826,272.5,186.826" style="stroke: #A80036; stroke-width: 1.0;"/><path d="M518.5,274.722 C518.5,288.665 518.5,305.5488 518.5,320.8639 " fill="none" style="stroke: #A80036; stroke-width: 1.0;"/><polygon fill="none" points="525.5,320.9995,518.5,340.9994,511.5,320.9994,525.5,320.9995" style="stroke: #A80036; stroke-width: 1.0;"/><path d="M518.5,121.291 C518.5,143.335 518.5,170.335 518.5,193.298 " fill="none" style="stroke: #A80036; stroke-width: 1.0;"/><polygon fill="none" points="525.5,193.389,518.5,213.389,511.5,193.389,525.5,193.389" style="stroke: #A80036; stroke-width: 1.0;"/></g></svg>