<?xml version="1.0" encoding="UTF-8" standalone="no"?><svg xmlns="http://www.w3.org/2000/svg" xmlns:xlink="http://www.w3.org/1999/xlink" contentScriptType="application/ecmascript" contentStyleType="text/css" height="380px" preserveAspectRatio="none" style="width:247px;height:380px;" version="1.1" viewBox="0 0 247 380" width="247px" zoomAndPan="magnify"><defs><filter height="300%" id="fccxs8o" width="300%" x="-1" y="-1"><feGaussianBlur result="blurOut" stdDeviation="2.0"/><feColorMatrix in="blurOut" result="blurOut2" type="matrix" values="0 0 0 0 0 0 0 0 0 0 0 0 0 0 0 0 0 0 .4 0"/><feOffset dx="4.0" dy="4.0" in="blurOut2" result="blurOut3"/><feBlend in="SourceGraphic" in2="blurOut3" mode="normal"/></filter></defs><g><!--class Wallet--><rect fill="#FEFECE" filter="url(#fccxs8o)" height="151.6406" style="stroke: #A80036; stroke-width: 1.5;" width="184" x="30" y="220"/><ellipse cx="100.75" cy="236" fill="#ADD1B2" rx="11" ry="11" style="stroke: #A80036; stroke-width: 1.0;"/><path d="M103.7231,241.6431 Q103.1421,241.9419 102.5029,242.0913 Q101.8638,242.2407 101.1582,242.2407 Q98.6514,242.2407 97.3315,240.5889 Q96.0117,238.937 96.0117,235.8159 Q96.0117,232.6865 97.3315,231.0347 Q98.6514,229.3828 101.1582,229.3828 Q101.8638,229.3828 102.5112,229.5322 Q103.1587,229.6816 103.7231,229.9805 L103.7231,232.7031 Q103.0923,232.1221 102.4988,231.8523 Q101.9053,231.5825 101.2744,231.5825 Q99.9297,231.5825 99.2449,232.6492 Q98.5601,233.7158 98.5601,235.8159 Q98.5601,237.9077 99.2449,238.9744 Q99.9297,240.041 101.2744,240.041 Q101.9053,240.041 102.4988,239.7712 Q103.0923,239.5015 103.7231,238.9204 Z "/><text fill="#000000" font-family="sans-serif" font-size="12" lengthAdjust="spacingAndGlyphs" textLength="34" x="121.25" y="240.5352">Wallet</text><line style="stroke: #A80036; stroke-width: 1.5;" x1="31" x2="213" y1="252" y2="252"/><line style="stroke: #A80036; stroke-width: 1.5;" x1="31" x2="213" y1="260" y2="260"/><ellipse cx="41" cy="271.9775" fill="#84BE84" rx="3" ry="3" style="stroke: #038048; stroke-width: 1.0;"/><text fill="#000000" font-family="sans-serif" font-size="11" lengthAdjust="spacingAndGlyphs" textLength="90" x="50" y="274.6348">Wallet getWallet()</text><ellipse cx="41" cy="284.9326" fill="#84BE84" rx="3" ry="3" style="stroke: #038048; stroke-width: 1.0;"/><text fill="#000000" font-family="sans-serif" font-size="11" lengthAdjust="spacingAndGlyphs" textLength="112" x="50" y="287.5898">void setWallet(Wallet)</text><ellipse cx="41" cy="297.8877" fill="#84BE84" rx="3" ry="3" style="stroke: #038048; stroke-width: 1.0;"/><text fill="#000000" font-family="sans-serif" font-size="11" lengthAdjust="spacingAndGlyphs" textLength="70" x="50" y="300.5449">Promise list()</text><ellipse cx="41" cy="310.8428" fill="#84BE84" rx="3" ry="3" style="stroke: #038048; stroke-width: 1.0;"/><text fill="#000000" font-family="sans-serif" font-size="11" lengthAdjust="spacingAndGlyphs" textLength="132" x="50" y="313.5">Promise contains(string)</text><ellipse cx="41" cy="323.7979" fill="#84BE84" rx="3" ry="3" style="stroke: #038048; stroke-width: 1.0;"/><text fill="#000000" font-family="sans-serif" font-size="11" lengthAdjust="spacingAndGlyphs" textLength="103" x="50" y="326.4551">Promise get(string)</text><ellipse cx="41" cy="336.7529" fill="#84BE84" rx="3" ry="3" style="stroke: #038048; stroke-width: 1.0;"/><text fill="#000000" font-family="sans-serif" font-size="11" lengthAdjust="spacingAndGlyphs" textLength="141" x="50" y="339.4102">Promise add(string,string)</text><ellipse cx="41" cy="349.708" fill="#84BE84" rx="3" ry="3" style="stroke: #038048; stroke-width: 1.0;"/><text fill="#000000" font-family="sans-serif" font-size="11" lengthAdjust="spacingAndGlyphs" textLength="158" x="50" y="352.3652">Promise update(string,string)</text><ellipse cx="41" cy="362.6631" fill="#84BE84" rx="3" ry="3" style="stroke: #038048; stroke-width: 1.0;"/><text fill="#000000" font-family="sans-serif" font-size="11" lengthAdjust="spacingAndGlyphs" textLength="126" x="50" y="365.3203">Promise remove(string)</text><!--class FileWallet--><rect fill="#FEFECE" filter="url(#fccxs8o)" height="151.6406" style="stroke: #A80036; stroke-width: 1.5;" width="232" x="6" y="8"/><ellipse cx="91.25" cy="24" fill="#ADD1B2" rx="11" ry="11" style="stroke: #A80036; stroke-width: 1.0;"/><path d="M94.2231,29.6431 Q93.6421,29.9419 93.0029,30.0913 Q92.3638,30.2407 91.6582,30.2407 Q89.1514,30.2407 87.8315,28.5889 Q86.5117,26.937 86.5117,23.8159 Q86.5117,20.6865 87.8315,19.0347 Q89.1514,17.3828 91.6582,17.3828 Q92.3638,17.3828 93.0112,17.5322 Q93.6587,17.6816 94.2231,17.9805 L94.2231,20.7031 Q93.5923,20.1221 92.9988,19.8523 Q92.4053,19.5825 91.7744,19.5825 Q90.4297,19.5825 89.7449,20.6492 Q89.0601,21.7158 89.0601,23.8159 Q89.0601,25.9077 89.7449,26.9744 Q90.4297,28.041 91.7744,28.041 Q92.4053,28.041 92.9988,27.7712 Q93.5923,27.5015 94.2231,26.9204 Z "/><text fill="#000000" font-family="sans-serif" font-size="12" lengthAdjust="spacingAndGlyphs" textLength="53" x="111.75" y="28.5352">FileWallet</text><line style="stroke: #A80036; stroke-width: 1.5;" x1="7" x2="237" y1="40" y2="40"/><line style="stroke: #A80036; stroke-width: 1.5;" x1="7" x2="237" y1="48" y2="48"/><ellipse cx="17" cy="59.9775" fill="#84BE84" rx="3" ry="3" style="stroke: #038048; stroke-width: 1.0;"/><text fill="#000000" font-family="sans-serif" font-size="11" lengthAdjust="spacingAndGlyphs" textLength="141" x="26" y="62.6348">string getHomeDirectory()</text><ellipse cx="17" cy="72.9326" fill="#84BE84" rx="3" ry="3" style="stroke: #038048; stroke-width: 1.0;"/><text fill="#000000" font-family="sans-serif" font-size="11" lengthAdjust="spacingAndGlyphs" textLength="206" x="26" y="75.5898">void constructor(Object,string,Object)</text><ellipse cx="17" cy="85.8877" fill="#84BE84" rx="3" ry="3" style="stroke: #038048; stroke-width: 1.0;"/><text fill="#000000" font-family="sans-serif" font-size="11" lengthAdjust="spacingAndGlyphs" textLength="70" x="26" y="88.5449">Promise list()</text><ellipse cx="17" cy="98.8428" fill="#84BE84" rx="3" ry="3" style="stroke: #038048; stroke-width: 1.0;"/><text fill="#000000" font-family="sans-serif" font-size="11" lengthAdjust="spacingAndGlyphs" textLength="132" x="26" y="101.5">Promise contains(string)</text><ellipse cx="17" cy="111.7979" fill="#84BE84" rx="3" ry="3" style="stroke: #038048; stroke-width: 1.0;"/><text fill="#000000" font-family="sans-serif" font-size="11" lengthAdjust="spacingAndGlyphs" textLength="103" x="26" y="114.4551">Promise get(string)</text><ellipse cx="17" cy="124.7529" fill="#84BE84" rx="3" ry="3" style="stroke: #038048; stroke-width: 1.0;"/><text fill="#000000" font-family="sans-serif" font-size="11" lengthAdjust="spacingAndGlyphs" textLength="141" x="26" y="127.4102">Promise add(string,string)</text><ellipse cx="17" cy="137.708" fill="#84BE84" rx="3" ry="3" style="stroke: #038048; stroke-width: 1.0;"/><text fill="#000000" font-family="sans-serif" font-size="11" lengthAdjust="spacingAndGlyphs" textLength="158" x="26" y="140.3652">Promise update(string,string)</text><ellipse cx="17" cy="150.6631" fill="#84BE84" rx="3" ry="3" style="stroke: #038048; stroke-width: 1.0;"/><text fill="#000000" font-family="sans-serif" font-size="11" lengthAdjust="spacingAndGlyphs" textLength="126" x="26" y="153.3203">Promise remove(string)</text><path d="M122,160.222 C122,172.965 122,186.347 122,199.527 " fill="none" style="stroke: #A80036; stroke-width: 1.0;"/><polygon fill="none" points="129,199.951,122,219.951,115,199.951,129,199.951" style="stroke: #A80036; stroke-width: 1.0;"/></g></svg>