<?xml version="1.0" encoding="UTF-8" standalone="no"?><svg xmlns="http://www.w3.org/2000/svg" xmlns:xlink="http://www.w3.org/1999/xlink" contentScriptType="application/ecmascript" contentStyleType="text/css" height="251px" preserveAspectRatio="none" style="width:222px;height:251px;" version="1.1" viewBox="0 0 222 251" width="222px" zoomAndPan="magnify"><defs><filter height="300%" id="fr679bg" width="300%" x="-1" y="-1"><feGaussianBlur result="blurOut" stdDeviation="2.0"/><feColorMatrix in="blurOut" result="blurOut2" type="matrix" values="0 0 0 0 0 0 0 0 0 0 0 0 0 0 0 0 0 0 .4 0"/><feOffset dx="4.0" dy="4.0" in="blurOut2" result="blurOut3"/><feBlend in="SourceGraphic" in2="blurOut3" mode="normal"/></filter></defs><g><!--class Identifiable--><rect fill="#FEFECE" filter="url(#fr679bg)" height="125.7305" style="stroke: #A80036; stroke-width: 1.5;" width="207" x="6" y="8"/><ellipse cx="73.25" cy="24" fill="#ADD1B2" rx="11" ry="11" style="stroke: #A80036; stroke-width: 1.0;"/><path d="M76.2231,29.6431 Q75.6421,29.9419 75.0029,30.0913 Q74.3638,30.2407 73.6582,30.2407 Q71.1514,30.2407 69.8315,28.5889 Q68.5117,26.937 68.5117,23.8159 Q68.5117,20.6865 69.8315,19.0347 Q71.1514,17.3828 73.6582,17.3828 Q74.3638,17.3828 75.0112,17.5322 Q75.6587,17.6816 76.2231,17.9805 L76.2231,20.7031 Q75.5923,20.1221 74.9988,19.8523 Q74.4053,19.5825 73.7744,19.5825 Q72.4297,19.5825 71.7449,20.6492 Q71.0601,21.7158 71.0601,23.8159 Q71.0601,25.9077 71.7449,26.9744 Q72.4297,28.041 73.7744,28.041 Q74.4053,28.041 74.9988,27.7712 Q75.5923,27.5015 76.2231,26.9204 Z "/><text fill="#000000" font-family="sans-serif" font-size="12" lengthAdjust="spacingAndGlyphs" textLength="64" x="93.75" y="28.5352">Identifiable</text><line style="stroke: #A80036; stroke-width: 1.5;" x1="7" x2="212" y1="40" y2="40"/><line style="stroke: #A80036; stroke-width: 1.5;" x1="7" x2="212" y1="48" y2="48"/><ellipse cx="17" cy="59.9775" fill="#84BE84" rx="3" ry="3" style="stroke: #038048; stroke-width: 1.0;"/><text fill="#000000" font-family="sans-serif" font-size="11" lengthAdjust="spacingAndGlyphs" textLength="108" x="26" y="62.6348">string getIdentifier()</text><ellipse cx="17" cy="72.9326" fill="#84BE84" rx="3" ry="3" style="stroke: #038048; stroke-width: 1.0;"/><text fill="#000000" font-family="sans-serif" font-size="11" lengthAdjust="spacingAndGlyphs" textLength="130" x="26" y="75.5898">void setIdentifier(string)</text><ellipse cx="17" cy="85.8877" fill="#84BE84" rx="3" ry="3" style="stroke: #038048; stroke-width: 1.0;"/><text fill="#000000" font-family="sans-serif" font-size="11" lengthAdjust="spacingAndGlyphs" textLength="181" x="26" y="88.5449">string getFullyQualifiedIdentifier()</text><ellipse cx="17" cy="98.8428" fill="#84BE84" rx="3" ry="3" style="stroke: #038048; stroke-width: 1.0;"/><text fill="#000000" font-family="sans-serif" font-size="11" lengthAdjust="spacingAndGlyphs" textLength="86" x="26" y="101.5">String toString()</text><ellipse cx="17" cy="111.7979" fill="#84BE84" rx="3" ry="3" style="stroke: #038048; stroke-width: 1.0;"/><text fill="#000000" font-family="sans-serif" font-size="11" lengthAdjust="spacingAndGlyphs" textLength="129" x="26" y="114.4551">boolean isRelationship()</text><ellipse cx="17" cy="124.7529" fill="#84BE84" rx="3" ry="3" style="stroke: #038048; stroke-width: 1.0;"/><text fill="#000000" font-family="sans-serif" font-size="11" lengthAdjust="spacingAndGlyphs" textLength="113" x="26" y="127.4102">boolean isResource()</text><!--class Typed--><rect fill="#FEFECE" filter="url(#fr679bg)" height="48" style="stroke: #A80036; stroke-width: 1.5;" width="69" x="75" y="194"/><ellipse cx="90" cy="210" fill="#ADD1B2" rx="11" ry="11" style="stroke: #A80036; stroke-width: 1.0;"/><path d="M92.9731,215.6431 Q92.3921,215.9419 91.7529,216.0913 Q91.1138,216.2407 90.4082,216.2407 Q87.9014,216.2407 86.5815,214.5889 Q85.2617,212.937 85.2617,209.8159 Q85.2617,206.6865 86.5815,205.0347 Q87.9014,203.3828 90.4082,203.3828 Q91.1138,203.3828 91.7612,203.5322 Q92.4087,203.6816 92.9731,203.9805 L92.9731,206.7031 Q92.3423,206.1221 91.7488,205.8523 Q91.1553,205.5825 90.5244,205.5825 Q89.1797,205.5825 88.4949,206.6492 Q87.8101,207.7158 87.8101,209.8159 Q87.8101,211.9077 88.4949,212.9744 Q89.1797,214.041 90.5244,214.041 Q91.1553,214.041 91.7488,213.7712 Q92.3423,213.5015 92.9731,212.9204 Z "/><text fill="#000000" font-family="sans-serif" font-size="12" lengthAdjust="spacingAndGlyphs" textLength="37" x="104" y="214.5352">Typed</text><line style="stroke: #A80036; stroke-width: 1.5;" x1="76" x2="143" y1="226" y2="226"/><line style="stroke: #A80036; stroke-width: 1.5;" x1="76" x2="143" y1="234" y2="234"/><path d="M109.5,134.335 C109.5,147.4793 109.5,161.0789 109.5,173.3585 " fill="none" style="stroke: #A80036; stroke-width: 1.0;"/><polygon fill="none" points="116.5,173.653,109.5,193.6529,102.5001,173.6529,116.5,173.653" style="stroke: #A80036; stroke-width: 1.0;"/></g></svg>