<?xml version="1.0" encoding="UTF-8" standalone="no"?><svg xmlns="http://www.w3.org/2000/svg" xmlns:xlink="http://www.w3.org/1999/xlink" contentScriptType="application/ecmascript" contentStyleType="text/css" height="186px" preserveAspectRatio="none" style="width:171px;height:186px;" version="1.1" viewBox="0 0 171 186" width="171px" zoomAndPan="magnify"><defs><filter height="300%" id="fsmvm0k" width="300%" x="-1" y="-1"><feGaussianBlur result="blurOut" stdDeviation="2.0"/><feColorMatrix in="blurOut" result="blurOut2" type="matrix" values="0 0 0 0 0 0 0 0 0 0 0 0 0 0 0 0 0 0 .4 0"/><feOffset dx="4.0" dy="4.0" in="blurOut2" result="blurOut3"/><feBlend in="SourceGraphic" in2="blurOut3" mode="normal"/></filter></defs><g><!--class IllegalModelException--><rect fill="#FEFECE" filter="url(#fsmvm0k)" height="60.9551" style="stroke: #A80036; stroke-width: 1.5;" width="156" x="6" y="8"/><ellipse cx="21" cy="24" fill="#ADD1B2" rx="11" ry="11" style="stroke: #A80036; stroke-width: 1.0;"/><path d="M23.9731,29.6431 Q23.3921,29.9419 22.7529,30.0913 Q22.1138,30.2407 21.4082,30.2407 Q18.9014,30.2407 17.5815,28.5889 Q16.2617,26.937 16.2617,23.8159 Q16.2617,20.6865 17.5815,19.0347 Q18.9014,17.3828 21.4082,17.3828 Q22.1138,17.3828 22.7612,17.5322 Q23.4087,17.6816 23.9731,17.9805 L23.9731,20.7031 Q23.3423,20.1221 22.7488,19.8523 Q22.1553,19.5825 21.5244,19.5825 Q20.1797,19.5825 19.4949,20.6492 Q18.8101,21.7158 18.8101,23.8159 Q18.8101,25.9077 19.4949,26.9744 Q20.1797,28.041 21.5244,28.041 Q22.1553,28.041 22.7488,27.7712 Q23.3423,27.5015 23.9731,26.9204 Z "/><text fill="#000000" font-family="sans-serif" font-size="12" lengthAdjust="spacingAndGlyphs" textLength="124" x="35" y="28.5352">IllegalModelException</text><line style="stroke: #A80036; stroke-width: 1.5;" x1="7" x2="161" y1="40" y2="40"/><line style="stroke: #A80036; stroke-width: 1.5;" x1="7" x2="161" y1="48" y2="48"/><ellipse cx="17" cy="59.9775" fill="#84BE84" rx="3" ry="3" style="stroke: #038048; stroke-width: 1.0;"/><text fill="#000000" font-family="sans-serif" font-size="11" lengthAdjust="spacingAndGlyphs" textLength="130" x="26" y="62.6348">void constructor(string)</text><!--class BaseException--><rect fill="#FEFECE" filter="url(#fsmvm0k)" height="48" style="stroke: #A80036; stroke-width: 1.5;" width="115" x="26.5" y="129"/><ellipse cx="41.5" cy="145" fill="#ADD1B2" rx="11" ry="11" style="stroke: #A80036; stroke-width: 1.0;"/><path d="M44.4731,150.6431 Q43.8921,150.9419 43.2529,151.0913 Q42.6138,151.2407 41.9082,151.2407 Q39.4014,151.2407 38.0815,149.5889 Q36.7617,147.937 36.7617,144.8159 Q36.7617,141.6865 38.0815,140.0347 Q39.4014,138.3828 41.9082,138.3828 Q42.6138,138.3828 43.2612,138.5322 Q43.9087,138.6816 44.4731,138.9805 L44.4731,141.7031 Q43.8423,141.1221 43.2488,140.8523 Q42.6553,140.5825 42.0244,140.5825 Q40.6797,140.5825 39.9949,141.6492 Q39.3101,142.7158 39.3101,144.8159 Q39.3101,146.9077 39.9949,147.9744 Q40.6797,149.041 42.0244,149.041 Q42.6553,149.041 43.2488,148.7712 Q43.8423,148.5015 44.4731,147.9204 Z "/><text fill="#000000" font-family="sans-serif" font-size="12" lengthAdjust="spacingAndGlyphs" textLength="83" x="55.5" y="149.5352">BaseException</text><line style="stroke: #A80036; stroke-width: 1.5;" x1="27.5" x2="140.5" y1="161" y2="161"/><line style="stroke: #A80036; stroke-width: 1.5;" x1="27.5" x2="140.5" y1="169" y2="169"/><path d="M84,69.058 C84,81.1313 84,95.3402 84,108.5536 " fill="none" style="stroke: #A80036; stroke-width: 1.0;"/><polygon fill="none" points="91.0001,108.6686,84,128.6686,77.0001,108.6686,91.0001,108.6686" style="stroke: #A80036; stroke-width: 1.0;"/></g></svg>