<?xml version="1.0" encoding="UTF-8" standalone="no"?><svg xmlns="http://www.w3.org/2000/svg" xmlns:xlink="http://www.w3.org/1999/xlink" contentScriptType="application/ecmascript" contentStyleType="text/css" height="458px" preserveAspectRatio="none" style="width:548px;height:458px;" version="1.1" viewBox="0 0 548 458" width="548px" zoomAndPan="magnify"><defs><filter height="300%" id="fh6ixms" width="300%" x="-1" y="-1"><feGaussianBlur result="blurOut" stdDeviation="2.0"/><feColorMatrix in="blurOut" result="blurOut2" type="matrix" values="0 0 0 0 0 0 0 0 0 0 0 0 0 0 0 0 0 0 .4 0"/><feOffset dx="4.0" dy="4.0" in="blurOut2" result="blurOut3"/><feBlend in="SourceGraphic" in2="blurOut3" mode="normal"/></filter></defs><g><!--class Registry--><rect fill="#FEFECE" filter="url(#fh6ixms)" height="281.1914" style="stroke: #A80036; stroke-width: 1.5;" width="491" x="27" y="168"/><ellipse cx="245.25" cy="184" fill="#ADD1B2" rx="11" ry="11" style="stroke: #A80036; stroke-width: 1.0;"/><path d="M248.2231,189.6431 Q247.6421,189.9419 247.0029,190.0913 Q246.3638,190.2407 245.6582,190.2407 Q243.1514,190.2407 241.8315,188.5889 Q240.5117,186.937 240.5117,183.8159 Q240.5117,180.6865 241.8315,179.0347 Q243.1514,177.3828 245.6582,177.3828 Q246.3638,177.3828 247.0112,177.5322 Q247.6587,177.6816 248.2231,177.9805 L248.2231,180.7031 Q247.5923,180.1221 246.9988,179.8523 Q246.4053,179.5825 245.7744,179.5825 Q244.4297,179.5825 243.7449,180.6492 Q243.0601,181.7158 243.0601,183.8159 Q243.0601,185.9077 243.7449,186.9744 Q244.4297,188.041 245.7744,188.041 Q246.4053,188.041 246.9988,187.7712 Q247.5923,187.5015 248.2231,186.9204 Z "/><text fill="#000000" font-family="sans-serif" font-size="12" lengthAdjust="spacingAndGlyphs" textLength="46" x="265.75" y="188.5352">Registry</text><line style="stroke: #A80036; stroke-width: 1.5;" x1="28" x2="517" y1="200" y2="200"/><line style="stroke: #A80036; stroke-width: 1.5;" x1="28" x2="517" y1="208" y2="208"/><ellipse cx="38" cy="219.9775" fill="#84BE84" rx="3" ry="3" style="stroke: #038048; stroke-width: 1.0;"/><text fill="#000000" font-family="sans-serif" font-size="11" lengthAdjust="spacingAndGlyphs" textLength="259" x="47" y="222.6348">Promise getAllRegistries(SecurityContext,string)</text><ellipse cx="38" cy="232.9326" fill="#84BE84" rx="3" ry="3" style="stroke: #038048; stroke-width: 1.0;"/><text fill="#000000" font-family="sans-serif" font-size="11" lengthAdjust="spacingAndGlyphs" textLength="271" x="47" y="235.5898">Promise getRegistry(SecurityContext,string,string)</text><ellipse cx="38" cy="245.8877" fill="#84BE84" rx="3" ry="3" style="stroke: #038048; stroke-width: 1.0;"/><text fill="#000000" font-family="sans-serif" font-size="11" lengthAdjust="spacingAndGlyphs" textLength="286" x="47" y="248.5449">Promise existsRegistry(SecurityContext,string,string)</text><ellipse cx="38" cy="258.8428" fill="#84BE84" rx="3" ry="3" style="stroke: #038048; stroke-width: 1.0;"/><text fill="#000000" font-family="sans-serif" font-size="11" lengthAdjust="spacingAndGlyphs" textLength="309" x="47" y="261.5">Promise addRegistry(SecurityContext,string,string,string)</text><ellipse cx="38" cy="271.7979" fill="#84BE84" rx="3" ry="3" style="stroke: #038048; stroke-width: 1.0;"/><text fill="#000000" font-family="sans-serif" font-size="11" lengthAdjust="spacingAndGlyphs" textLength="465" x="47" y="274.4551">void constructor(string,string,string,SecurityContext,ModelManager,Factory,Serializer)</text><ellipse cx="38" cy="284.7529" fill="#84BE84" rx="3" ry="3" style="stroke: #038048; stroke-width: 1.0;"/><text fill="#000000" font-family="sans-serif" font-size="11" lengthAdjust="spacingAndGlyphs" textLength="146" x="47" y="287.4102">Promise addAll(Resource[])</text><ellipse cx="38" cy="297.708" fill="#84BE84" rx="3" ry="3" style="stroke: #038048; stroke-width: 1.0;"/><text fill="#000000" font-family="sans-serif" font-size="11" lengthAdjust="spacingAndGlyphs" textLength="124" x="47" y="300.3652">Promise add(Resource)</text><ellipse cx="38" cy="310.6631" fill="#84BE84" rx="3" ry="3" style="stroke: #038048; stroke-width: 1.0;"/><text fill="#000000" font-family="sans-serif" font-size="11" lengthAdjust="spacingAndGlyphs" textLength="163" x="47" y="313.3203">Promise updateAll(Resource[])</text><ellipse cx="38" cy="323.6182" fill="#84BE84" rx="3" ry="3" style="stroke: #038048; stroke-width: 1.0;"/><text fill="#000000" font-family="sans-serif" font-size="11" lengthAdjust="spacingAndGlyphs" textLength="141" x="47" y="326.2754">Promise update(Resource)</text><ellipse cx="38" cy="336.5732" fill="#84BE84" rx="3" ry="3" style="stroke: #038048; stroke-width: 1.0;"/><text fill="#000000" font-family="sans-serif" font-size="11" lengthAdjust="spacingAndGlyphs" textLength="108" x="47" y="339.2305">Promise removeAll()</text><ellipse cx="38" cy="349.5283" fill="#84BE84" rx="3" ry="3" style="stroke: #038048; stroke-width: 1.0;"/><text fill="#000000" font-family="sans-serif" font-size="11" lengthAdjust="spacingAndGlyphs" textLength="94" x="47" y="352.1855">Promise remove()</text><ellipse cx="38" cy="362.4834" fill="#84BE84" rx="3" ry="3" style="stroke: #038048; stroke-width: 1.0;"/><text fill="#000000" font-family="sans-serif" font-size="11" lengthAdjust="spacingAndGlyphs" textLength="85" x="47" y="365.1406">Promise getAll()</text><ellipse cx="38" cy="375.4385" fill="#84BE84" rx="3" ry="3" style="stroke: #038048; stroke-width: 1.0;"/><text fill="#000000" font-family="sans-serif" font-size="11" lengthAdjust="spacingAndGlyphs" textLength="103" x="47" y="378.0957">Promise get(string)</text><ellipse cx="38" cy="388.3936" fill="#84BE84" rx="3" ry="3" style="stroke: #038048; stroke-width: 1.0;"/><text fill="#000000" font-family="sans-serif" font-size="11" lengthAdjust="spacingAndGlyphs" textLength="118" x="47" y="391.0508">Promise exists(string)</text><ellipse cx="38" cy="401.3486" fill="#84BE84" rx="3" ry="3" style="stroke: #038048; stroke-width: 1.0;"/><text fill="#000000" font-family="sans-serif" font-size="11" lengthAdjust="spacingAndGlyphs" textLength="107" x="47" y="404.0059">Promise find(string)</text><ellipse cx="38" cy="414.3037" fill="#84BE84" rx="3" ry="3" style="stroke: #038048; stroke-width: 1.0;"/><text fill="#000000" font-family="sans-serif" font-size="11" lengthAdjust="spacingAndGlyphs" textLength="117" x="47" y="416.9609">Promise query(string)</text><ellipse cx="38" cy="427.2588" fill="#84BE84" rx="3" ry="3" style="stroke: #038048; stroke-width: 1.0;"/><text fill="#000000" font-family="sans-serif" font-size="11" lengthAdjust="spacingAndGlyphs" textLength="107" x="47" y="429.916">Promise resolveAll()</text><ellipse cx="38" cy="440.2139" fill="#84BE84" rx="3" ry="3" style="stroke: #038048; stroke-width: 1.0;"/><text fill="#000000" font-family="sans-serif" font-size="11" lengthAdjust="spacingAndGlyphs" textLength="125" x="47" y="442.8711">Promise resolve(string)</text><!--class ParticipantRegistry--><rect fill="#FEFECE" filter="url(#fh6ixms)" height="99.8203" style="stroke: #A80036; stroke-width: 1.5;" width="533" x="6" y="8"/><ellipse cx="214.75" cy="24" fill="#ADD1B2" rx="11" ry="11" style="stroke: #A80036; stroke-width: 1.0;"/><path d="M217.7231,29.6431 Q217.1421,29.9419 216.5029,30.0913 Q215.8638,30.2407 215.1582,30.2407 Q212.6514,30.2407 211.3315,28.5889 Q210.0117,26.937 210.0117,23.8159 Q210.0117,20.6865 211.3315,19.0347 Q212.6514,17.3828 215.1582,17.3828 Q215.8638,17.3828 216.5112,17.5322 Q217.1587,17.6816 217.7231,17.9805 L217.7231,20.7031 Q217.0923,20.1221 216.4988,19.8523 Q215.9053,19.5825 215.2744,19.5825 Q213.9297,19.5825 213.2449,20.6492 Q212.5601,21.7158 212.5601,23.8159 Q212.5601,25.9077 213.2449,26.9744 Q213.9297,28.041 215.2744,28.041 Q215.9053,28.041 216.4988,27.7712 Q217.0923,27.5015 217.7231,26.9204 Z "/><text fill="#000000" font-family="sans-serif" font-size="12" lengthAdjust="spacingAndGlyphs" textLength="107" x="235.25" y="28.5352">ParticipantRegistry</text><line style="stroke: #A80036; stroke-width: 1.5;" x1="7" x2="538" y1="40" y2="40"/><line style="stroke: #A80036; stroke-width: 1.5;" x1="7" x2="538" y1="48" y2="48"/><ellipse cx="17" cy="59.9775" fill="#84BE84" rx="3" ry="3" style="stroke: #038048; stroke-width: 1.0;"/><text fill="#000000" font-family="sans-serif" font-size="11" lengthAdjust="spacingAndGlyphs" textLength="457" x="26" y="62.6348">Promise getAllParticipantRegistries(SecurityContext,ModelManager,Factory,Serializer)</text><ellipse cx="17" cy="72.9326" fill="#84BE84" rx="3" ry="3" style="stroke: #038048; stroke-width: 1.0;"/><text fill="#000000" font-family="sans-serif" font-size="11" lengthAdjust="spacingAndGlyphs" textLength="469" x="26" y="75.5898">Promise getParticipantRegistry(SecurityContext,string,ModelManager,Factory,Serializer)</text><ellipse cx="17" cy="85.8877" fill="#84BE84" rx="3" ry="3" style="stroke: #038048; stroke-width: 1.0;"/><text fill="#000000" font-family="sans-serif" font-size="11" lengthAdjust="spacingAndGlyphs" textLength="507" x="26" y="88.5449">Promise addParticipantRegistry(SecurityContext,string,string,ModelManager,Factory,Serializer)</text><ellipse cx="17" cy="98.8428" fill="#84BE84" rx="3" ry="3" style="stroke: #038048; stroke-width: 1.0;"/><text fill="#000000" font-family="sans-serif" font-size="11" lengthAdjust="spacingAndGlyphs" textLength="430" x="26" y="101.5">void constructor(string,string,SecurityContext,ModelManager,Factory,Serializer)</text><path d="M272.5,108.096 C272.5,120.065 272.5,133.525 272.5,147.655 " fill="none" style="stroke: #A80036; stroke-width: 1.0;"/><polygon fill="none" points="279.5,147.994,272.5,167.994,265.5,147.994,279.5,147.994" style="stroke: #A80036; stroke-width: 1.0;"/></g></svg>