<?xml version="1.0" encoding="UTF-8" standalone="no"?><svg xmlns="http://www.w3.org/2000/svg" xmlns:xlink="http://www.w3.org/1999/xlink" contentScriptType="application/ecmascript" contentStyleType="text/css" height="199px" preserveAspectRatio="none" style="width:170px;height:199px;" version="1.1" viewBox="0 0 170 199" width="170px" zoomAndPan="magnify"><defs><filter height="300%" id="fdmibzq" width="300%" x="-1" y="-1"><feGaussianBlur result="blurOut" stdDeviation="2.0"/><feColorMatrix in="blurOut" result="blurOut2" type="matrix" values="0 0 0 0 0 0 0 0 0 0 0 0 0 0 0 0 0 0 .4 0"/><feOffset dx="4.0" dy="4.0" in="blurOut2" result="blurOut3"/><feBlend in="SourceGraphic" in2="blurOut3" mode="normal"/></filter></defs><g><!--class Relationship--><rect fill="#FEFECE" filter="url(#fdmibzq)" height="73.9102" style="stroke: #A80036; stroke-width: 1.5;" width="155" x="6" y="8"/><ellipse cx="44.85" cy="24" fill="#ADD1B2" rx="11" ry="11" style="stroke: #A80036; stroke-width: 1.0;"/><path d="M47.8231,29.6431 Q47.2421,29.9419 46.6029,30.0913 Q45.9638,30.2407 45.2582,30.2407 Q42.7514,30.2407 41.4315,28.5889 Q40.1117,26.937 40.1117,23.8159 Q40.1117,20.6865 41.4315,19.0347 Q42.7514,17.3828 45.2582,17.3828 Q45.9638,17.3828 46.6112,17.5322 Q47.2587,17.6816 47.8231,17.9805 L47.8231,20.7031 Q47.1923,20.1221 46.5988,19.8523 Q46.0053,19.5825 45.3744,19.5825 Q44.0297,19.5825 43.3449,20.6492 Q42.6601,21.7158 42.6601,23.8159 Q42.6601,25.9077 43.3449,26.9744 Q44.0297,28.041 45.3744,28.041 Q46.0053,28.041 46.5988,27.7712 Q47.1923,27.5015 47.8231,26.9204 Z "/><text fill="#000000" font-family="sans-serif" font-size="12" lengthAdjust="spacingAndGlyphs" textLength="70" x="64.15" y="28.5352">Relationship</text><line style="stroke: #A80036; stroke-width: 1.5;" x1="7" x2="160" y1="40" y2="40"/><line style="stroke: #A80036; stroke-width: 1.5;" x1="7" x2="160" y1="48" y2="48"/><ellipse cx="17" cy="59.9775" fill="#84BE84" rx="3" ry="3" style="stroke: #038048; stroke-width: 1.0;"/><text fill="#000000" font-family="sans-serif" font-size="11" lengthAdjust="spacingAndGlyphs" textLength="86" x="26" y="62.6348">String toString()</text><ellipse cx="17" cy="72.9326" fill="#84BE84" rx="3" ry="3" style="stroke: #038048; stroke-width: 1.0;"/><text fill="#000000" font-family="sans-serif" font-size="11" lengthAdjust="spacingAndGlyphs" textLength="129" x="26" y="75.5898">boolean isRelationship()</text><!--class Identifiable--><rect fill="#FEFECE" filter="url(#fdmibzq)" height="48" style="stroke: #A80036; stroke-width: 1.5;" width="96" x="35.5" y="142"/><ellipse cx="50.5" cy="158" fill="#ADD1B2" rx="11" ry="11" style="stroke: #A80036; stroke-width: 1.0;"/><path d="M53.4731,163.6431 Q52.8921,163.9419 52.2529,164.0913 Q51.6138,164.2407 50.9082,164.2407 Q48.4014,164.2407 47.0815,162.5889 Q45.7617,160.937 45.7617,157.8159 Q45.7617,154.6865 47.0815,153.0347 Q48.4014,151.3828 50.9082,151.3828 Q51.6138,151.3828 52.2612,151.5322 Q52.9087,151.6816 53.4731,151.9805 L53.4731,154.7031 Q52.8423,154.1221 52.2488,153.8523 Q51.6553,153.5825 51.0244,153.5825 Q49.6797,153.5825 48.9949,154.6492 Q48.3101,155.7158 48.3101,157.8159 Q48.3101,159.9077 48.9949,160.9744 Q49.6797,162.041 51.0244,162.041 Q51.6553,162.041 52.2488,161.7712 Q52.8423,161.5015 53.4731,160.9204 Z "/><text fill="#000000" font-family="sans-serif" font-size="12" lengthAdjust="spacingAndGlyphs" textLength="64" x="64.5" y="162.5352">Identifiable</text><line style="stroke: #A80036; stroke-width: 1.5;" x1="36.5" x2="130.5" y1="174" y2="174"/><line style="stroke: #A80036; stroke-width: 1.5;" x1="36.5" x2="130.5" y1="182" y2="182"/><path d="M83.5,82.027 C83.5,94.4728 83.5,108.5506 83.5,121.529 " fill="none" style="stroke: #A80036; stroke-width: 1.0;"/><polygon fill="none" points="90.5001,121.8505,83.5,141.8505,76.5001,121.8504,90.5001,121.8505" style="stroke: #A80036; stroke-width: 1.0;"/></g></svg>