<?xml version="1.0" encoding="UTF-8" standalone="no"?><svg xmlns="http://www.w3.org/2000/svg" xmlns:xlink="http://www.w3.org/1999/xlink" contentScriptType="application/ecmascript" contentStyleType="text/css" height="199px" preserveAspectRatio="none" style="width:154px;height:199px;" version="1.1" viewBox="0 0 154 199" width="154px" zoomAndPan="magnify"><defs><filter height="300%" id="f2n1r51" width="300%" x="-1" y="-1"><feGaussianBlur result="blurOut" stdDeviation="2.0"/><feColorMatrix in="blurOut" result="blurOut2" type="matrix" values="0 0 0 0 0 0 0 0 0 0 0 0 0 0 0 0 0 0 .4 0"/><feOffset dx="4.0" dy="4.0" in="blurOut2" result="blurOut3"/><feBlend in="SourceGraphic" in2="blurOut3" mode="normal"/></filter></defs><g><!--class Resource--><rect fill="#FEFECE" filter="url(#f2n1r51)" height="73.9102" style="stroke: #A80036; stroke-width: 1.5;" width="139" x="6" y="8"/><ellipse cx="45.3" cy="24" fill="#ADD1B2" rx="11" ry="11" style="stroke: #A80036; stroke-width: 1.0;"/><path d="M48.2731,29.6431 Q47.6921,29.9419 47.0529,30.0913 Q46.4138,30.2407 45.7082,30.2407 Q43.2014,30.2407 41.8815,28.5889 Q40.5617,26.937 40.5617,23.8159 Q40.5617,20.6865 41.8815,19.0347 Q43.2014,17.3828 45.7082,17.3828 Q46.4138,17.3828 47.0612,17.5322 Q47.7087,17.6816 48.2731,17.9805 L48.2731,20.7031 Q47.6423,20.1221 47.0488,19.8523 Q46.4553,19.5825 45.8244,19.5825 Q44.4797,19.5825 43.7949,20.6492 Q43.1101,21.7158 43.1101,23.8159 Q43.1101,25.9077 43.7949,26.9744 Q44.4797,28.041 45.8244,28.041 Q46.4553,28.041 47.0488,27.7712 Q47.6423,27.5015 48.2731,26.9204 Z "/><text fill="#000000" font-family="sans-serif" font-size="12" lengthAdjust="spacingAndGlyphs" textLength="53" x="64.7" y="28.5352">Resource</text><line style="stroke: #A80036; stroke-width: 1.5;" x1="7" x2="144" y1="40" y2="40"/><line style="stroke: #A80036; stroke-width: 1.5;" x1="7" x2="144" y1="48" y2="48"/><ellipse cx="17" cy="59.9775" fill="#84BE84" rx="3" ry="3" style="stroke: #038048; stroke-width: 1.0;"/><text fill="#000000" font-family="sans-serif" font-size="11" lengthAdjust="spacingAndGlyphs" textLength="86" x="26" y="62.6348">String toString()</text><ellipse cx="17" cy="72.9326" fill="#84BE84" rx="3" ry="3" style="stroke: #038048; stroke-width: 1.0;"/><text fill="#000000" font-family="sans-serif" font-size="11" lengthAdjust="spacingAndGlyphs" textLength="113" x="26" y="75.5898">boolean isResource()</text><!--class Identifiable--><rect fill="#FEFECE" filter="url(#f2n1r51)" height="48" style="stroke: #A80036; stroke-width: 1.5;" width="96" x="27.5" y="142"/><ellipse cx="42.5" cy="158" fill="#ADD1B2" rx="11" ry="11" style="stroke: #A80036; stroke-width: 1.0;"/><path d="M45.4731,163.6431 Q44.8921,163.9419 44.2529,164.0913 Q43.6138,164.2407 42.9082,164.2407 Q40.4014,164.2407 39.0815,162.5889 Q37.7617,160.937 37.7617,157.8159 Q37.7617,154.6865 39.0815,153.0347 Q40.4014,151.3828 42.9082,151.3828 Q43.6138,151.3828 44.2612,151.5322 Q44.9087,151.6816 45.4731,151.9805 L45.4731,154.7031 Q44.8423,154.1221 44.2488,153.8523 Q43.6553,153.5825 43.0244,153.5825 Q41.6797,153.5825 40.9949,154.6492 Q40.3101,155.7158 40.3101,157.8159 Q40.3101,159.9077 40.9949,160.9744 Q41.6797,162.041 43.0244,162.041 Q43.6553,162.041 44.2488,161.7712 Q44.8423,161.5015 45.4731,160.9204 Z "/><text fill="#000000" font-family="sans-serif" font-size="12" lengthAdjust="spacingAndGlyphs" textLength="64" x="56.5" y="162.5352">Identifiable</text><line style="stroke: #A80036; stroke-width: 1.5;" x1="28.5" x2="122.5" y1="174" y2="174"/><line style="stroke: #A80036; stroke-width: 1.5;" x1="28.5" x2="122.5" y1="182" y2="182"/><path d="M75.5,82.027 C75.5,94.4728 75.5,108.5506 75.5,121.529 " fill="none" style="stroke: #A80036; stroke-width: 1.0;"/><polygon fill="none" points="82.5001,121.8505,75.5,141.8505,68.5001,121.8504,82.5001,121.8505" style="stroke: #A80036; stroke-width: 1.0;"/></g></svg>