<?xml version="1.0" encoding="UTF-8" standalone="no"?><svg xmlns="http://www.w3.org/2000/svg" xmlns:xlink="http://www.w3.org/1999/xlink" contentScriptType="application/ecmascript" contentStyleType="text/css" height="307px" preserveAspectRatio="none" style="width:171px;height:307px;" version="1.1" viewBox="0 0 171 307" width="171px" zoomAndPan="magnify"><defs><filter height="300%" id="ft8bccb" width="300%" x="-1" y="-1"><feGaussianBlur result="blurOut" stdDeviation="2.0"/><feColorMatrix in="blurOut" result="blurOut2" type="matrix" values="0 0 0 0 0 0 0 0 0 0 0 0 0 0 0 0 0 0 .4 0"/><feOffset dx="4.0" dy="4.0" in="blurOut2" result="blurOut3"/><feBlend in="SourceGraphic" in2="blurOut3" mode="normal"/></filter></defs><g><!--class BaseException--><rect fill="#FEFECE" filter="url(#ft8bccb)" height="60.9551" style="stroke: #A80036; stroke-width: 1.5;" width="156" x="6" y="129"/><ellipse cx="39.45" cy="145" fill="#ADD1B2" rx="11" ry="11" style="stroke: #A80036; stroke-width: 1.0;"/><path d="M42.4231,150.6431 Q41.8421,150.9419 41.2029,151.0913 Q40.5638,151.2407 39.8582,151.2407 Q37.3514,151.2407 36.0315,149.5889 Q34.7117,147.937 34.7117,144.8159 Q34.7117,141.6865 36.0315,140.0347 Q37.3514,138.3828 39.8582,138.3828 Q40.5638,138.3828 41.2112,138.5322 Q41.8587,138.6816 42.4231,138.9805 L42.4231,141.7031 Q41.7923,141.1221 41.1988,140.8523 Q40.6053,140.5825 39.9744,140.5825 Q38.6297,140.5825 37.9449,141.6492 Q37.2601,142.7158 37.2601,144.8159 Q37.2601,146.9077 37.9449,147.9744 Q38.6297,149.041 39.9744,149.041 Q40.6053,149.041 41.1988,148.7712 Q41.7923,148.5015 42.4231,147.9204 Z "/><text fill="#000000" font-family="sans-serif" font-size="12" lengthAdjust="spacingAndGlyphs" textLength="83" x="57.55" y="149.5352">BaseException</text><line style="stroke: #A80036; stroke-width: 1.5;" x1="7" x2="161" y1="161" y2="161"/><line style="stroke: #A80036; stroke-width: 1.5;" x1="7" x2="161" y1="169" y2="169"/><ellipse cx="17" cy="180.9775" fill="#84BE84" rx="3" ry="3" style="stroke: #038048; stroke-width: 1.0;"/><text fill="#000000" font-family="sans-serif" font-size="11" lengthAdjust="spacingAndGlyphs" textLength="130" x="26" y="183.6348">void constructor(string)</text><!--class Error--><rect fill="#FEFECE" filter="url(#ft8bccb)" height="48" style="stroke: #A80036; stroke-width: 1.5;" width="61" x="53.5" y="250"/><ellipse cx="68.5" cy="266" fill="#ADD1B2" rx="11" ry="11" style="stroke: #A80036; stroke-width: 1.0;"/><path d="M71.4731,271.6431 Q70.8921,271.9419 70.2529,272.0913 Q69.6138,272.2407 68.9082,272.2407 Q66.4014,272.2407 65.0815,270.5889 Q63.7617,268.937 63.7617,265.8159 Q63.7617,262.6865 65.0815,261.0347 Q66.4014,259.3828 68.9082,259.3828 Q69.6138,259.3828 70.2612,259.5322 Q70.9087,259.6816 71.4731,259.9805 L71.4731,262.7031 Q70.8423,262.1221 70.2488,261.8523 Q69.6553,261.5825 69.0244,261.5825 Q67.6797,261.5825 66.9949,262.6492 Q66.3101,263.7158 66.3101,265.8159 Q66.3101,267.9077 66.9949,268.9744 Q67.6797,270.041 69.0244,270.041 Q69.6553,270.041 70.2488,269.7712 Q70.8423,269.5015 71.4731,268.9204 Z "/><text fill="#000000" font-family="sans-serif" font-size="12" lengthAdjust="spacingAndGlyphs" textLength="29" x="82.5" y="270.5352">Error</text><line style="stroke: #A80036; stroke-width: 1.5;" x1="54.5" x2="113.5" y1="282" y2="282"/><line style="stroke: #A80036; stroke-width: 1.5;" x1="54.5" x2="113.5" y1="290" y2="290"/><!--class SecurityException--><rect fill="#FEFECE" filter="url(#ft8bccb)" height="60.9551" style="stroke: #A80036; stroke-width: 1.5;" width="156" x="6" y="8"/><ellipse cx="31.8" cy="24" fill="#ADD1B2" rx="11" ry="11" style="stroke: #A80036; stroke-width: 1.0;"/><path d="M34.7731,29.6431 Q34.1921,29.9419 33.5529,30.0913 Q32.9138,30.2407 32.2082,30.2407 Q29.7014,30.2407 28.3815,28.5889 Q27.0617,26.937 27.0617,23.8159 Q27.0617,20.6865 28.3815,19.0347 Q29.7014,17.3828 32.2082,17.3828 Q32.9138,17.3828 33.5612,17.5322 Q34.2087,17.6816 34.7731,17.9805 L34.7731,20.7031 Q34.1423,20.1221 33.5488,19.8523 Q32.9553,19.5825 32.3244,19.5825 Q30.9797,19.5825 30.2949,20.6492 Q29.6101,21.7158 29.6101,23.8159 Q29.6101,25.9077 30.2949,26.9744 Q30.9797,28.041 32.3244,28.041 Q32.9553,28.041 33.5488,27.7712 Q34.1423,27.5015 34.7731,26.9204 Z "/><text fill="#000000" font-family="sans-serif" font-size="12" lengthAdjust="spacingAndGlyphs" textLength="100" x="48.2" y="28.5352">SecurityException</text><line style="stroke: #A80036; stroke-width: 1.5;" x1="7" x2="161" y1="40" y2="40"/><line style="stroke: #A80036; stroke-width: 1.5;" x1="7" x2="161" y1="48" y2="48"/><ellipse cx="17" cy="59.9775" fill="#84BE84" rx="3" ry="3" style="stroke: #038048; stroke-width: 1.0;"/><text fill="#000000" font-family="sans-serif" font-size="11" lengthAdjust="spacingAndGlyphs" textLength="130" x="26" y="62.6348">void constructor(string)</text><path d="M84,190.058 C84,202.1313 84,216.3402 84,229.5536 " fill="none" style="stroke: #A80036; stroke-width: 1.0;"/><polygon fill="none" points="91.0001,229.6686,84,249.6686,77.0001,229.6686,91.0001,229.6686" style="stroke: #A80036; stroke-width: 1.0;"/><path d="M84,69.222 C84,81.149 84,95.226 84,108.633 " fill="none" style="stroke: #A80036; stroke-width: 1.0;"/><polygon fill="none" points="91.0001,108.745,84,128.745,77.0001,108.745,91.0001,108.745" style="stroke: #A80036; stroke-width: 1.0;"/></g></svg>