<?xml version="1.0" encoding="UTF-8" standalone="no"?><svg xmlns="http://www.w3.org/2000/svg" xmlns:xlink="http://www.w3.org/1999/xlink" contentScriptType="application/ecmascript" contentStyleType="text/css" height="212px" preserveAspectRatio="none" style="width:524px;height:212px;" version="1.1" viewBox="0 0 524 212" width="524px" zoomAndPan="magnify"><defs><filter height="300%" id="f3kt3pd" width="300%" x="-1" y="-1"><feGaussianBlur result="blurOut" stdDeviation="2.0"/><feColorMatrix in="blurOut" result="blurOut2" type="matrix" values="0 0 0 0 0 0 0 0 0 0 0 0 0 0 0 0 0 0 .4 0"/><feOffset dx="4.0" dy="4.0" in="blurOut2" result="blurOut3"/><feBlend in="SourceGraphic" in2="blurOut3" mode="normal"/></filter></defs><g><!--class Resource--><rect fill="#FEFECE" filter="url(#f3kt3pd)" height="73.9102" style="stroke: #A80036; stroke-width: 1.5;" width="139" x="6" y="14.5"/><ellipse cx="45.3" cy="30.5" fill="#ADD1B2" rx="11" ry="11" style="stroke: #A80036; stroke-width: 1.0;"/><path d="M48.2731,36.1431 Q47.6921,36.4419 47.0529,36.5913 Q46.4138,36.7407 45.7082,36.7407 Q43.2014,36.7407 41.8815,35.0889 Q40.5617,33.437 40.5617,30.3159 Q40.5617,27.1865 41.8815,25.5347 Q43.2014,23.8828 45.7082,23.8828 Q46.4138,23.8828 47.0612,24.0322 Q47.7087,24.1816 48.2731,24.4805 L48.2731,27.2031 Q47.6423,26.6221 47.0488,26.3523 Q46.4553,26.0825 45.8244,26.0825 Q44.4797,26.0825 43.7949,27.1492 Q43.1101,28.2158 43.1101,30.3159 Q43.1101,32.4077 43.7949,33.4744 Q44.4797,34.541 45.8244,34.541 Q46.4553,34.541 47.0488,34.2712 Q47.6423,34.0015 48.2731,33.4204 Z "/><text fill="#000000" font-family="sans-serif" font-size="12" lengthAdjust="spacingAndGlyphs" textLength="53" x="64.7" y="35.0352">Resource</text><line style="stroke: #A80036; stroke-width: 1.5;" x1="7" x2="144" y1="46.5" y2="46.5"/><line style="stroke: #A80036; stroke-width: 1.5;" x1="7" x2="144" y1="54.5" y2="54.5"/><ellipse cx="17" cy="66.4775" fill="#84BE84" rx="3" ry="3" style="stroke: #038048; stroke-width: 1.0;"/><text fill="#000000" font-family="sans-serif" font-size="11" lengthAdjust="spacingAndGlyphs" textLength="86" x="26" y="69.1348">String toString()</text><ellipse cx="17" cy="79.4326" fill="#84BE84" rx="3" ry="3" style="stroke: #038048; stroke-width: 1.0;"/><text fill="#000000" font-family="sans-serif" font-size="11" lengthAdjust="spacingAndGlyphs" textLength="113" x="26" y="82.0898">boolean isResource()</text><!--class Identifiable--><rect fill="#FEFECE" filter="url(#f3kt3pd)" height="48" style="stroke: #A80036; stroke-width: 1.5;" width="96" x="27.5" y="155"/><ellipse cx="42.5" cy="171" fill="#ADD1B2" rx="11" ry="11" style="stroke: #A80036; stroke-width: 1.0;"/><path d="M45.4731,176.6431 Q44.8921,176.9419 44.2529,177.0913 Q43.6138,177.2407 42.9082,177.2407 Q40.4014,177.2407 39.0815,175.5889 Q37.7617,173.937 37.7617,170.8159 Q37.7617,167.6865 39.0815,166.0347 Q40.4014,164.3828 42.9082,164.3828 Q43.6138,164.3828 44.2612,164.5322 Q44.9087,164.6816 45.4731,164.9805 L45.4731,167.7031 Q44.8423,167.1221 44.2488,166.8523 Q43.6553,166.5825 43.0244,166.5825 Q41.6797,166.5825 40.9949,167.6492 Q40.3101,168.7158 40.3101,170.8159 Q40.3101,172.9077 40.9949,173.9744 Q41.6797,175.041 43.0244,175.041 Q43.6553,175.041 44.2488,174.7712 Q44.8423,174.5015 45.4731,173.9204 Z "/><text fill="#000000" font-family="sans-serif" font-size="12" lengthAdjust="spacingAndGlyphs" textLength="64" x="56.5" y="175.5352">Identifiable</text><line style="stroke: #A80036; stroke-width: 1.5;" x1="28.5" x2="122.5" y1="187" y2="187"/><line style="stroke: #A80036; stroke-width: 1.5;" x1="28.5" x2="122.5" y1="195" y2="195"/><!--class Serializer--><rect fill="#FEFECE" filter="url(#f3kt3pd)" height="86.8652" style="stroke: #A80036; stroke-width: 1.5;" width="335" x="180" y="8"/><ellipse cx="316.75" cy="24" fill="#ADD1B2" rx="11" ry="11" style="stroke: #A80036; stroke-width: 1.0;"/><path d="M319.7231,29.6431 Q319.1421,29.9419 318.5029,30.0913 Q317.8638,30.2407 317.1582,30.2407 Q314.6514,30.2407 313.3315,28.5889 Q312.0117,26.937 312.0117,23.8159 Q312.0117,20.6865 313.3315,19.0347 Q314.6514,17.3828 317.1582,17.3828 Q317.8638,17.3828 318.5112,17.5322 Q319.1587,17.6816 319.7231,17.9805 L319.7231,20.7031 Q319.0923,20.1221 318.4988,19.8523 Q317.9053,19.5825 317.2744,19.5825 Q315.9297,19.5825 315.2449,20.6492 Q314.5601,21.7158 314.5601,23.8159 Q314.5601,25.9077 315.2449,26.9744 Q315.9297,28.041 317.2744,28.041 Q317.9053,28.041 318.4988,27.7712 Q319.0923,27.5015 319.7231,26.9204 Z "/><text fill="#000000" font-family="sans-serif" font-size="12" lengthAdjust="spacingAndGlyphs" textLength="53" x="337.25" y="28.5352">Serializer</text><line style="stroke: #A80036; stroke-width: 1.5;" x1="181" x2="514" y1="40" y2="40"/><line style="stroke: #A80036; stroke-width: 1.5;" x1="181" x2="514" y1="48" y2="48"/><ellipse cx="191" cy="59.9775" fill="#84BE84" rx="3" ry="3" style="stroke: #038048; stroke-width: 1.0;"/><text fill="#000000" font-family="sans-serif" font-size="11" lengthAdjust="spacingAndGlyphs" textLength="219" x="200" y="62.6348">void constructor(Factory,ModelManager)</text><ellipse cx="191" cy="72.9326" fill="#84BE84" rx="3" ry="3" style="stroke: #038048; stroke-width: 1.0;"/><text fill="#000000" font-family="sans-serif" font-size="11" lengthAdjust="spacingAndGlyphs" textLength="309" x="200" y="75.5898">Object toJSON(Resource,Object,boolean,boolean,boolean)</text><ellipse cx="191" cy="85.8877" fill="#84BE84" rx="3" ry="3" style="stroke: #038048; stroke-width: 1.0;"/><text fill="#000000" font-family="sans-serif" font-size="11" lengthAdjust="spacingAndGlyphs" textLength="232" x="200" y="88.5449">Resource fromJSON(Object,Object,boolean)</text><path d="M75.5,88.8 C75.5,103.1827 75.5,119.8349 75.5,134.8294 " fill="none" style="stroke: #A80036; stroke-width: 1.0;"/><polygon fill="none" points="82.5001,134.8329,75.5,154.8328,68.5001,134.8328,82.5001,134.8329" style="stroke: #A80036; stroke-width: 1.0;"/></g></svg>