<?xml version="1.0" encoding="UTF-8" standalone="no"?><svg xmlns="http://www.w3.org/2000/svg" xmlns:xlink="http://www.w3.org/1999/xlink" contentScriptType="application/ecmascript" contentStyleType="text/css" height="536px" preserveAspectRatio="none" style="width:555px;height:536px;" version="1.1" viewBox="0 0 555 536" width="555px" zoomAndPan="magnify"><defs><filter height="300%" id="fv90bcb" width="300%" x="-1" y="-1"><feGaussianBlur result="blurOut" stdDeviation="2.0"/><feColorMatrix in="blurOut" result="blurOut2" type="matrix" values="0 0 0 0 0 0 0 0 0 0 0 0 0 0 0 0 0 0 .4 0"/><feOffset dx="4.0" dy="4.0" in="blurOut2" result="blurOut3"/><feBlend in="SourceGraphic" in2="blurOut3" mode="normal"/></filter></defs><g><!--class Registry--><rect fill="#FEFECE" filter="url(#fv90bcb)" height="281.1914" style="stroke: #A80036; stroke-width: 1.5;" width="491" x="30.5" y="246"/><ellipse cx="248.75" cy="262" fill="#ADD1B2" rx="11" ry="11" style="stroke: #A80036; stroke-width: 1.0;"/><path d="M251.7231,267.6431 Q251.1421,267.9419 250.5029,268.0913 Q249.8638,268.2407 249.1582,268.2407 Q246.6514,268.2407 245.3315,266.5889 Q244.0117,264.937 244.0117,261.8159 Q244.0117,258.6865 245.3315,257.0347 Q246.6514,255.3828 249.1582,255.3828 Q249.8638,255.3828 250.5112,255.5322 Q251.1587,255.6816 251.7231,255.9805 L251.7231,258.7031 Q251.0923,258.1221 250.4988,257.8523 Q249.9053,257.5825 249.2744,257.5825 Q247.9297,257.5825 247.2449,258.6492 Q246.5601,259.7158 246.5601,261.8159 Q246.5601,263.9077 247.2449,264.9744 Q247.9297,266.041 249.2744,266.041 Q249.9053,266.041 250.4988,265.7712 Q251.0923,265.5015 251.7231,264.9204 Z "/><text fill="#000000" font-family="sans-serif" font-size="12" lengthAdjust="spacingAndGlyphs" textLength="46" x="269.25" y="266.5352">Registry</text><line style="stroke: #A80036; stroke-width: 1.5;" x1="31.5" x2="520.5" y1="278" y2="278"/><line style="stroke: #A80036; stroke-width: 1.5;" x1="31.5" x2="520.5" y1="286" y2="286"/><ellipse cx="41.5" cy="297.9775" fill="#84BE84" rx="3" ry="3" style="stroke: #038048; stroke-width: 1.0;"/><text fill="#000000" font-family="sans-serif" font-size="11" lengthAdjust="spacingAndGlyphs" textLength="259" x="50.5" y="300.6348">Promise getAllRegistries(SecurityContext,string)</text><ellipse cx="41.5" cy="310.9326" fill="#84BE84" rx="3" ry="3" style="stroke: #038048; stroke-width: 1.0;"/><text fill="#000000" font-family="sans-serif" font-size="11" lengthAdjust="spacingAndGlyphs" textLength="271" x="50.5" y="313.5898">Promise getRegistry(SecurityContext,string,string)</text><ellipse cx="41.5" cy="323.8877" fill="#84BE84" rx="3" ry="3" style="stroke: #038048; stroke-width: 1.0;"/><text fill="#000000" font-family="sans-serif" font-size="11" lengthAdjust="spacingAndGlyphs" textLength="286" x="50.5" y="326.5449">Promise existsRegistry(SecurityContext,string,string)</text><ellipse cx="41.5" cy="336.8428" fill="#84BE84" rx="3" ry="3" style="stroke: #038048; stroke-width: 1.0;"/><text fill="#000000" font-family="sans-serif" font-size="11" lengthAdjust="spacingAndGlyphs" textLength="309" x="50.5" y="339.5">Promise addRegistry(SecurityContext,string,string,string)</text><ellipse cx="41.5" cy="349.7979" fill="#84BE84" rx="3" ry="3" style="stroke: #038048; stroke-width: 1.0;"/><text fill="#000000" font-family="sans-serif" font-size="11" lengthAdjust="spacingAndGlyphs" textLength="465" x="50.5" y="352.4551">void constructor(string,string,string,SecurityContext,ModelManager,Factory,Serializer)</text><ellipse cx="41.5" cy="362.7529" fill="#84BE84" rx="3" ry="3" style="stroke: #038048; stroke-width: 1.0;"/><text fill="#000000" font-family="sans-serif" font-size="11" lengthAdjust="spacingAndGlyphs" textLength="146" x="50.5" y="365.4102">Promise addAll(Resource[])</text><ellipse cx="41.5" cy="375.708" fill="#84BE84" rx="3" ry="3" style="stroke: #038048; stroke-width: 1.0;"/><text fill="#000000" font-family="sans-serif" font-size="11" lengthAdjust="spacingAndGlyphs" textLength="124" x="50.5" y="378.3652">Promise add(Resource)</text><ellipse cx="41.5" cy="388.6631" fill="#84BE84" rx="3" ry="3" style="stroke: #038048; stroke-width: 1.0;"/><text fill="#000000" font-family="sans-serif" font-size="11" lengthAdjust="spacingAndGlyphs" textLength="163" x="50.5" y="391.3203">Promise updateAll(Resource[])</text><ellipse cx="41.5" cy="401.6182" fill="#84BE84" rx="3" ry="3" style="stroke: #038048; stroke-width: 1.0;"/><text fill="#000000" font-family="sans-serif" font-size="11" lengthAdjust="spacingAndGlyphs" textLength="141" x="50.5" y="404.2754">Promise update(Resource)</text><ellipse cx="41.5" cy="414.5732" fill="#84BE84" rx="3" ry="3" style="stroke: #038048; stroke-width: 1.0;"/><text fill="#000000" font-family="sans-serif" font-size="11" lengthAdjust="spacingAndGlyphs" textLength="108" x="50.5" y="417.2305">Promise removeAll()</text><ellipse cx="41.5" cy="427.5283" fill="#84BE84" rx="3" ry="3" style="stroke: #038048; stroke-width: 1.0;"/><text fill="#000000" font-family="sans-serif" font-size="11" lengthAdjust="spacingAndGlyphs" textLength="94" x="50.5" y="430.1855">Promise remove()</text><ellipse cx="41.5" cy="440.4834" fill="#84BE84" rx="3" ry="3" style="stroke: #038048; stroke-width: 1.0;"/><text fill="#000000" font-family="sans-serif" font-size="11" lengthAdjust="spacingAndGlyphs" textLength="85" x="50.5" y="443.1406">Promise getAll()</text><ellipse cx="41.5" cy="453.4385" fill="#84BE84" rx="3" ry="3" style="stroke: #038048; stroke-width: 1.0;"/><text fill="#000000" font-family="sans-serif" font-size="11" lengthAdjust="spacingAndGlyphs" textLength="103" x="50.5" y="456.0957">Promise get(string)</text><ellipse cx="41.5" cy="466.3936" fill="#84BE84" rx="3" ry="3" style="stroke: #038048; stroke-width: 1.0;"/><text fill="#000000" font-family="sans-serif" font-size="11" lengthAdjust="spacingAndGlyphs" textLength="118" x="50.5" y="469.0508">Promise exists(string)</text><ellipse cx="41.5" cy="479.3486" fill="#84BE84" rx="3" ry="3" style="stroke: #038048; stroke-width: 1.0;"/><text fill="#000000" font-family="sans-serif" font-size="11" lengthAdjust="spacingAndGlyphs" textLength="107" x="50.5" y="482.0059">Promise find(string)</text><ellipse cx="41.5" cy="492.3037" fill="#84BE84" rx="3" ry="3" style="stroke: #038048; stroke-width: 1.0;"/><text fill="#000000" font-family="sans-serif" font-size="11" lengthAdjust="spacingAndGlyphs" textLength="117" x="50.5" y="494.9609">Promise query(string)</text><ellipse cx="41.5" cy="505.2588" fill="#84BE84" rx="3" ry="3" style="stroke: #038048; stroke-width: 1.0;"/><text fill="#000000" font-family="sans-serif" font-size="11" lengthAdjust="spacingAndGlyphs" textLength="107" x="50.5" y="507.916">Promise resolveAll()</text><ellipse cx="41.5" cy="518.2139" fill="#84BE84" rx="3" ry="3" style="stroke: #038048; stroke-width: 1.0;"/><text fill="#000000" font-family="sans-serif" font-size="11" lengthAdjust="spacingAndGlyphs" textLength="125" x="50.5" y="520.8711">Promise resolve(string)</text><!--class TransactionRegistry--><rect fill="#FEFECE" filter="url(#fv90bcb)" height="177.5508" style="stroke: #A80036; stroke-width: 1.5;" width="540" x="6" y="8"/><ellipse cx="215.25" cy="24" fill="#ADD1B2" rx="11" ry="11" style="stroke: #A80036; stroke-width: 1.0;"/><path d="M218.2231,29.6431 Q217.6421,29.9419 217.0029,30.0913 Q216.3638,30.2407 215.6582,30.2407 Q213.1514,30.2407 211.8315,28.5889 Q210.5117,26.937 210.5117,23.8159 Q210.5117,20.6865 211.8315,19.0347 Q213.1514,17.3828 215.6582,17.3828 Q216.3638,17.3828 217.0112,17.5322 Q217.6587,17.6816 218.2231,17.9805 L218.2231,20.7031 Q217.5923,20.1221 216.9988,19.8523 Q216.4053,19.5825 215.7744,19.5825 Q214.4297,19.5825 213.7449,20.6492 Q213.0601,21.7158 213.0601,23.8159 Q213.0601,25.9077 213.7449,26.9744 Q214.4297,28.041 215.7744,28.041 Q216.4053,28.041 216.9988,27.7712 Q217.5923,27.5015 218.2231,26.9204 Z "/><text fill="#000000" font-family="sans-serif" font-size="12" lengthAdjust="spacingAndGlyphs" textLength="113" x="235.75" y="28.5352">TransactionRegistry</text><line style="stroke: #A80036; stroke-width: 1.5;" x1="7" x2="545" y1="40" y2="40"/><line style="stroke: #A80036; stroke-width: 1.5;" x1="7" x2="545" y1="48" y2="48"/><ellipse cx="17" cy="59.9775" fill="#84BE84" rx="3" ry="3" style="stroke: #038048; stroke-width: 1.0;"/><text fill="#000000" font-family="sans-serif" font-size="11" lengthAdjust="spacingAndGlyphs" textLength="464" x="26" y="62.6348">Promise getAllTransactionRegistries(SecurityContext,ModelManager,Factory,Serializer)</text><ellipse cx="17" cy="72.9326" fill="#84BE84" rx="3" ry="3" style="stroke: #038048; stroke-width: 1.0;"/><text fill="#000000" font-family="sans-serif" font-size="11" lengthAdjust="spacingAndGlyphs" textLength="476" x="26" y="75.5898">Promise getTransactionRegistry(SecurityContext,string,ModelManager,Factory,Serializer)</text><ellipse cx="17" cy="85.8877" fill="#84BE84" rx="3" ry="3" style="stroke: #038048; stroke-width: 1.0;"/><text fill="#000000" font-family="sans-serif" font-size="11" lengthAdjust="spacingAndGlyphs" textLength="514" x="26" y="88.5449">Promise addTransactionRegistry(SecurityContext,string,string,ModelManager,Factory,Serializer)</text><ellipse cx="17" cy="98.8428" fill="#84BE84" rx="3" ry="3" style="stroke: #038048; stroke-width: 1.0;"/><text fill="#000000" font-family="sans-serif" font-size="11" lengthAdjust="spacingAndGlyphs" textLength="430" x="26" y="101.5">void constructor(string,string,SecurityContext,ModelManager,Factory,Serializer)</text><ellipse cx="17" cy="111.7979" fill="#84BE84" rx="3" ry="3" style="stroke: #038048; stroke-width: 1.0;"/><text fill="#000000" font-family="sans-serif" font-size="11" lengthAdjust="spacingAndGlyphs" textLength="139" x="26" y="114.4551">void add(Resource,string)</text><ellipse cx="17" cy="124.7529" fill="#84BE84" rx="3" ry="3" style="stroke: #038048; stroke-width: 1.0;"/><text fill="#000000" font-family="sans-serif" font-size="11" lengthAdjust="spacingAndGlyphs" textLength="126" x="26" y="127.4102">void addAll(Resource[])</text><ellipse cx="17" cy="137.708" fill="#84BE84" rx="3" ry="3" style="stroke: #038048; stroke-width: 1.0;"/><text fill="#000000" font-family="sans-serif" font-size="11" lengthAdjust="spacingAndGlyphs" textLength="121" x="26" y="140.3652">void update(Resource)</text><ellipse cx="17" cy="150.6631" fill="#84BE84" rx="3" ry="3" style="stroke: #038048; stroke-width: 1.0;"/><text fill="#000000" font-family="sans-serif" font-size="11" lengthAdjust="spacingAndGlyphs" textLength="143" x="26" y="153.3203">void updateAll(Resource[])</text><ellipse cx="17" cy="163.6182" fill="#84BE84" rx="3" ry="3" style="stroke: #038048; stroke-width: 1.0;"/><text fill="#000000" font-family="sans-serif" font-size="11" lengthAdjust="spacingAndGlyphs" textLength="74" x="26" y="166.2754">void remove()</text><ellipse cx="17" cy="176.5732" fill="#84BE84" rx="3" ry="3" style="stroke: #038048; stroke-width: 1.0;"/><text fill="#000000" font-family="sans-serif" font-size="11" lengthAdjust="spacingAndGlyphs" textLength="88" x="26" y="179.2305">void removeAll()</text><path d="M276,186.213 C276,198.764 276,211.982 276,225.392 " fill="none" style="stroke: #A80036; stroke-width: 1.0;"/><polygon fill="none" points="283,225.831,276,245.831,269,225.831,283,225.831" style="stroke: #A80036; stroke-width: 1.0;"/></g></svg>