<?xml version="1.0" encoding="UTF-8" standalone="no"?><svg xmlns="http://www.w3.org/2000/svg" xmlns:xlink="http://www.w3.org/1999/xlink" contentScriptType="application/ecmascript" contentStyleType="text/css" height="129px" preserveAspectRatio="none" style="width:233px;height:129px;" version="1.1" viewBox="0 0 233 129" width="233px" zoomAndPan="magnify"><defs><filter height="300%" id="fsx6617" width="300%" x="-1" y="-1"><feGaussianBlur result="blurOut" stdDeviation="2.0"/><feColorMatrix in="blurOut" result="blurOut2" type="matrix" values="0 0 0 0 0 0 0 0 0 0 0 0 0 0 0 0 0 0 .4 0"/><feOffset dx="4.0" dy="4.0" in="blurOut2" result="blurOut3"/><feBlend in="SourceGraphic" in2="blurOut3" mode="normal"/></filter></defs><g><!--class Typed--><rect fill="#FEFECE" filter="url(#fsx6617)" height="112.7754" style="stroke: #A80036; stroke-width: 1.5;" width="218" x="6" y="8"/><ellipse cx="92.25" cy="24" fill="#ADD1B2" rx="11" ry="11" style="stroke: #A80036; stroke-width: 1.0;"/><path d="M95.2231,29.6431 Q94.6421,29.9419 94.0029,30.0913 Q93.3638,30.2407 92.6582,30.2407 Q90.1514,30.2407 88.8315,28.5889 Q87.5117,26.937 87.5117,23.8159 Q87.5117,20.6865 88.8315,19.0347 Q90.1514,17.3828 92.6582,17.3828 Q93.3638,17.3828 94.0112,17.5322 Q94.6587,17.6816 95.2231,17.9805 L95.2231,20.7031 Q94.5923,20.1221 93.9988,19.8523 Q93.4053,19.5825 92.7744,19.5825 Q91.4297,19.5825 90.7449,20.6492 Q90.0601,21.7158 90.0601,23.8159 Q90.0601,25.9077 90.7449,26.9744 Q91.4297,28.041 92.7744,28.041 Q93.4053,28.041 93.9988,27.7712 Q94.5923,27.5015 95.2231,26.9204 Z "/><text fill="#000000" font-family="sans-serif" font-size="12" lengthAdjust="spacingAndGlyphs" textLength="37" x="112.75" y="28.5352">Typed</text><line style="stroke: #A80036; stroke-width: 1.5;" x1="7" x2="223" y1="40" y2="40"/><line style="stroke: #A80036; stroke-width: 1.5;" x1="7" x2="223" y1="48" y2="48"/><ellipse cx="17" cy="59.9775" fill="#84BE84" rx="3" ry="3" style="stroke: #038048; stroke-width: 1.0;"/><text fill="#000000" font-family="sans-serif" font-size="11" lengthAdjust="spacingAndGlyphs" textLength="86" x="26" y="62.6348">string getType()</text><ellipse cx="17" cy="72.9326" fill="#84BE84" rx="3" ry="3" style="stroke: #038048; stroke-width: 1.0;"/><text fill="#000000" font-family="sans-serif" font-size="11" lengthAdjust="spacingAndGlyphs" textLength="159" x="26" y="75.5898">string getFullyQualifiedType()</text><ellipse cx="17" cy="85.8877" fill="#84BE84" rx="3" ry="3" style="stroke: #038048; stroke-width: 1.0;"/><text fill="#000000" font-family="sans-serif" font-size="11" lengthAdjust="spacingAndGlyphs" textLength="121" x="26" y="88.5449">string getNamespace()</text><ellipse cx="17" cy="98.8428" fill="#84BE84" rx="3" ry="3" style="stroke: #038048; stroke-width: 1.0;"/><text fill="#000000" font-family="sans-serif" font-size="11" lengthAdjust="spacingAndGlyphs" textLength="192" x="26" y="101.5">void setPropertyValue(string,string)</text><ellipse cx="17" cy="111.7979" fill="#84BE84" rx="3" ry="3" style="stroke: #038048; stroke-width: 1.0;"/><text fill="#000000" font-family="sans-serif" font-size="11" lengthAdjust="spacingAndGlyphs" textLength="180" x="26" y="114.4551">void addArrayValue(string,string)</text></g></svg>