<?xml version="1.0" encoding="UTF-8" standalone="no"?><svg xmlns="http://www.w3.org/2000/svg" xmlns:xlink="http://www.w3.org/1999/xlink" contentScriptType="application/ecmascript" contentStyleType="text/css" height="212px" preserveAspectRatio="none" style="width:233px;height:212px;" version="1.1" viewBox="0 0 233 212" width="233px" zoomAndPan="magnify"><defs><filter height="300%" id="fsmw2x4" width="300%" x="-1" y="-1"><feGaussianBlur result="blurOut" stdDeviation="2.0"/><feColorMatrix in="blurOut" result="blurOut2" type="matrix" values="0 0 0 0 0 0 0 0 0 0 0 0 0 0 0 0 0 0 .4 0"/><feOffset dx="4.0" dy="4.0" in="blurOut2" result="blurOut3"/><feBlend in="SourceGraphic" in2="blurOut3" mode="normal"/></filter></defs><g><!--class ValidatedResource--><rect fill="#FEFECE" filter="url(#fsmw2x4)" height="86.8652" style="stroke: #A80036; stroke-width: 1.5;" width="218" x="6" y="8"/><ellipse cx="56.75" cy="24" fill="#ADD1B2" rx="11" ry="11" style="stroke: #A80036; stroke-width: 1.0;"/><path d="M59.7231,29.6431 Q59.1421,29.9419 58.5029,30.0913 Q57.8638,30.2407 57.1582,30.2407 Q54.6514,30.2407 53.3315,28.5889 Q52.0117,26.937 52.0117,23.8159 Q52.0117,20.6865 53.3315,19.0347 Q54.6514,17.3828 57.1582,17.3828 Q57.8638,17.3828 58.5112,17.5322 Q59.1587,17.6816 59.7231,17.9805 L59.7231,20.7031 Q59.0923,20.1221 58.4988,19.8523 Q57.9053,19.5825 57.2744,19.5825 Q55.9297,19.5825 55.2449,20.6492 Q54.5601,21.7158 54.5601,23.8159 Q54.5601,25.9077 55.2449,26.9744 Q55.9297,28.041 57.2744,28.041 Q57.9053,28.041 58.4988,27.7712 Q59.0923,27.5015 59.7231,26.9204 Z "/><text fill="#000000" font-family="sans-serif" font-size="12" lengthAdjust="spacingAndGlyphs" textLength="108" x="77.25" y="28.5352">ValidatedResource</text><line style="stroke: #A80036; stroke-width: 1.5;" x1="7" x2="223" y1="40" y2="40"/><line style="stroke: #A80036; stroke-width: 1.5;" x1="7" x2="223" y1="48" y2="48"/><ellipse cx="17" cy="59.9775" fill="#84BE84" rx="3" ry="3" style="stroke: #038048; stroke-width: 1.0;"/><text fill="#000000" font-family="sans-serif" font-size="11" lengthAdjust="spacingAndGlyphs" textLength="192" x="26" y="62.6348">void setPropertyValue(string,string)</text><ellipse cx="17" cy="72.9326" fill="#84BE84" rx="3" ry="3" style="stroke: #038048; stroke-width: 1.0;"/><text fill="#000000" font-family="sans-serif" font-size="11" lengthAdjust="spacingAndGlyphs" textLength="180" x="26" y="75.5898">void addArrayValue(string,string)</text><ellipse cx="17" cy="85.8877" fill="#84BE84" rx="3" ry="3" style="stroke: #038048; stroke-width: 1.0;"/><text fill="#000000" font-family="sans-serif" font-size="11" lengthAdjust="spacingAndGlyphs" textLength="75" x="26" y="88.5449">void validate()</text><!--class Resource--><rect fill="#FEFECE" filter="url(#fsmw2x4)" height="48" style="stroke: #A80036; stroke-width: 1.5;" width="85" x="72.5" y="155"/><ellipse cx="87.5" cy="171" fill="#ADD1B2" rx="11" ry="11" style="stroke: #A80036; stroke-width: 1.0;"/><path d="M90.4731,176.6431 Q89.8921,176.9419 89.2529,177.0913 Q88.6138,177.2407 87.9082,177.2407 Q85.4014,177.2407 84.0815,175.5889 Q82.7617,173.937 82.7617,170.8159 Q82.7617,167.6865 84.0815,166.0347 Q85.4014,164.3828 87.9082,164.3828 Q88.6138,164.3828 89.2612,164.5322 Q89.9087,164.6816 90.4731,164.9805 L90.4731,167.7031 Q89.8423,167.1221 89.2488,166.8523 Q88.6553,166.5825 88.0244,166.5825 Q86.6797,166.5825 85.9949,167.6492 Q85.3101,168.7158 85.3101,170.8159 Q85.3101,172.9077 85.9949,173.9744 Q86.6797,175.041 88.0244,175.041 Q88.6553,175.041 89.2488,174.7712 Q89.8423,174.5015 90.4731,173.9204 Z "/><text fill="#000000" font-family="sans-serif" font-size="12" lengthAdjust="spacingAndGlyphs" textLength="53" x="101.5" y="175.5352">Resource</text><line style="stroke: #A80036; stroke-width: 1.5;" x1="73.5" x2="156.5" y1="187" y2="187"/><line style="stroke: #A80036; stroke-width: 1.5;" x1="73.5" x2="156.5" y1="195" y2="195"/><path d="M115,95.339 C115,107.9208 115,121.6941 115,134.3273 " fill="none" style="stroke: #A80036; stroke-width: 1.0;"/><polygon fill="none" points="122,134.7115,115,154.7115,108,134.7114,122,134.7115" style="stroke: #A80036; stroke-width: 1.0;"/></g></svg>