<?xml version="1.0" encoding="UTF-8" standalone="no"?><svg xmlns="http://www.w3.org/2000/svg" xmlns:xlink="http://www.w3.org/1999/xlink" contentScriptType="application/ecmascript" contentStyleType="text/css" height="186px" preserveAspectRatio="none" style="width:171px;height:186px;" version="1.1" viewBox="0 0 171 186" width="171px" zoomAndPan="magnify"><defs><filter height="300%" id="f8gfs1s" width="300%" x="-1" y="-1"><feGaussianBlur result="blurOut" stdDeviation="2.0"/><feColorMatrix in="blurOut" result="blurOut2" type="matrix" values="0 0 0 0 0 0 0 0 0 0 0 0 0 0 0 0 0 0 .4 0"/><feOffset dx="4.0" dy="4.0" in="blurOut2" result="blurOut3"/><feBlend in="SourceGraphic" in2="blurOut3" mode="normal"/></filter></defs><g><!--class ValidationException--><rect fill="#FEFECE" filter="url(#f8gfs1s)" height="60.9551" style="stroke: #A80036; stroke-width: 1.5;" width="156" x="6" y="8"/><ellipse cx="25.95" cy="24" fill="#ADD1B2" rx="11" ry="11" style="stroke: #A80036; stroke-width: 1.0;"/><path d="M28.9231,29.6431 Q28.3421,29.9419 27.7029,30.0913 Q27.0638,30.2407 26.3582,30.2407 Q23.8514,30.2407 22.5315,28.5889 Q21.2117,26.937 21.2117,23.8159 Q21.2117,20.6865 22.5315,19.0347 Q23.8514,17.3828 26.3582,17.3828 Q27.0638,17.3828 27.7112,17.5322 Q28.3587,17.6816 28.9231,17.9805 L28.9231,20.7031 Q28.2923,20.1221 27.6988,19.8523 Q27.1053,19.5825 26.4744,19.5825 Q25.1297,19.5825 24.4449,20.6492 Q23.7601,21.7158 23.7601,23.8159 Q23.7601,25.9077 24.4449,26.9744 Q25.1297,28.041 26.4744,28.041 Q27.1053,28.041 27.6988,27.7712 Q28.2923,27.5015 28.9231,26.9204 Z "/><text fill="#000000" font-family="sans-serif" font-size="12" lengthAdjust="spacingAndGlyphs" textLength="113" x="41.05" y="28.5352">ValidationException</text><line style="stroke: #A80036; stroke-width: 1.5;" x1="7" x2="161" y1="40" y2="40"/><line style="stroke: #A80036; stroke-width: 1.5;" x1="7" x2="161" y1="48" y2="48"/><ellipse cx="17" cy="59.9775" fill="#84BE84" rx="3" ry="3" style="stroke: #038048; stroke-width: 1.0;"/><text fill="#000000" font-family="sans-serif" font-size="11" lengthAdjust="spacingAndGlyphs" textLength="130" x="26" y="62.6348">void constructor(string)</text><!--class BaseException--><rect fill="#FEFECE" filter="url(#f8gfs1s)" height="48" style="stroke: #A80036; stroke-width: 1.5;" width="115" x="26.5" y="129"/><ellipse cx="41.5" cy="145" fill="#ADD1B2" rx="11" ry="11" style="stroke: #A80036; stroke-width: 1.0;"/><path d="M44.4731,150.6431 Q43.8921,150.9419 43.2529,151.0913 Q42.6138,151.2407 41.9082,151.2407 Q39.4014,151.2407 38.0815,149.5889 Q36.7617,147.937 36.7617,144.8159 Q36.7617,141.6865 38.0815,140.0347 Q39.4014,138.3828 41.9082,138.3828 Q42.6138,138.3828 43.2612,138.5322 Q43.9087,138.6816 44.4731,138.9805 L44.4731,141.7031 Q43.8423,141.1221 43.2488,140.8523 Q42.6553,140.5825 42.0244,140.5825 Q40.6797,140.5825 39.9949,141.6492 Q39.3101,142.7158 39.3101,144.8159 Q39.3101,146.9077 39.9949,147.9744 Q40.6797,149.041 42.0244,149.041 Q42.6553,149.041 43.2488,148.7712 Q43.8423,148.5015 44.4731,147.9204 Z "/><text fill="#000000" font-family="sans-serif" font-size="12" lengthAdjust="spacingAndGlyphs" textLength="83" x="55.5" y="149.5352">BaseException</text><line style="stroke: #A80036; stroke-width: 1.5;" x1="27.5" x2="140.5" y1="161" y2="161"/><line style="stroke: #A80036; stroke-width: 1.5;" x1="27.5" x2="140.5" y1="169" y2="169"/><path d="M84,69.058 C84,81.1313 84,95.3402 84,108.5536 " fill="none" style="stroke: #A80036; stroke-width: 1.0;"/><polygon fill="none" points="91.0001,108.6686,84,128.6686,77.0001,108.6686,91.0001,108.6686" style="stroke: #A80036; stroke-width: 1.0;"/></g></svg>