<?xml version="1.0" encoding="UTF-8" standalone="no"?><svg xmlns="http://www.w3.org/2000/svg" xmlns:xlink="http://www.w3.org/1999/xlink" contentScriptType="application/ecmascript" contentStyleType="text/css" height="212px" preserveAspectRatio="none" style="width:233px;height:212px;" version="1.1" viewBox="0 0 233 212" width="233px" zoomAndPan="magnify"><defs><filter height="300%" id="fvl3qdl" width="300%" x="-1" y="-1"><feGaussianBlur result="blurOut" stdDeviation="2.0"/><feColorMatrix in="blurOut" result="blurOut2" type="matrix" values="0 0 0 0 0 0 0 0 0 0 0 0 0 0 0 0 0 0 .4 0"/><feOffset dx="4.0" dy="4.0" in="blurOut2" result="blurOut3"/><feBlend in="SourceGraphic" in2="blurOut3" mode="normal"/></filter></defs><g><!--class ValidatedConcept--><rect fill="#FEFECE" filter="url(#fvl3qdl)" height="86.8652" style="stroke: #A80036; stroke-width: 1.5;" width="218" x="6" y="8"/><ellipse cx="59.75" cy="24" fill="#ADD1B2" rx="11" ry="11" style="stroke: #A80036; stroke-width: 1.0;"/><path d="M62.7231,29.6431 Q62.1421,29.9419 61.5029,30.0913 Q60.8638,30.2407 60.1582,30.2407 Q57.6514,30.2407 56.3315,28.5889 Q55.0117,26.937 55.0117,23.8159 Q55.0117,20.6865 56.3315,19.0347 Q57.6514,17.3828 60.1582,17.3828 Q60.8638,17.3828 61.5112,17.5322 Q62.1587,17.6816 62.7231,17.9805 L62.7231,20.7031 Q62.0923,20.1221 61.4988,19.8523 Q60.9053,19.5825 60.2744,19.5825 Q58.9297,19.5825 58.2449,20.6492 Q57.5601,21.7158 57.5601,23.8159 Q57.5601,25.9077 58.2449,26.9744 Q58.9297,28.041 60.2744,28.041 Q60.9053,28.041 61.4988,27.7712 Q62.0923,27.5015 62.7231,26.9204 Z "/><text fill="#000000" font-family="sans-serif" font-size="12" lengthAdjust="spacingAndGlyphs" textLength="102" x="80.25" y="28.5352">ValidatedConcept</text><line style="stroke: #A80036; stroke-width: 1.5;" x1="7" x2="223" y1="40" y2="40"/><line style="stroke: #A80036; stroke-width: 1.5;" x1="7" x2="223" y1="48" y2="48"/><ellipse cx="17" cy="59.9775" fill="#84BE84" rx="3" ry="3" style="stroke: #038048; stroke-width: 1.0;"/><text fill="#000000" font-family="sans-serif" font-size="11" lengthAdjust="spacingAndGlyphs" textLength="192" x="26" y="62.6348">void setPropertyValue(string,string)</text><ellipse cx="17" cy="72.9326" fill="#84BE84" rx="3" ry="3" style="stroke: #038048; stroke-width: 1.0;"/><text fill="#000000" font-family="sans-serif" font-size="11" lengthAdjust="spacingAndGlyphs" textLength="180" x="26" y="75.5898">void addArrayValue(string,string)</text><ellipse cx="17" cy="85.8877" fill="#84BE84" rx="3" ry="3" style="stroke: #038048; stroke-width: 1.0;"/><text fill="#000000" font-family="sans-serif" font-size="11" lengthAdjust="spacingAndGlyphs" textLength="75" x="26" y="88.5449">void validate()</text><!--class Concept--><rect fill="#FEFECE" filter="url(#fvl3qdl)" height="48" style="stroke: #A80036; stroke-width: 1.5;" width="79" x="75.5" y="155"/><ellipse cx="90.5" cy="171" fill="#ADD1B2" rx="11" ry="11" style="stroke: #A80036; stroke-width: 1.0;"/><path d="M93.4731,176.6431 Q92.8921,176.9419 92.2529,177.0913 Q91.6138,177.2407 90.9082,177.2407 Q88.4014,177.2407 87.0815,175.5889 Q85.7617,173.937 85.7617,170.8159 Q85.7617,167.6865 87.0815,166.0347 Q88.4014,164.3828 90.9082,164.3828 Q91.6138,164.3828 92.2612,164.5322 Q92.9087,164.6816 93.4731,164.9805 L93.4731,167.7031 Q92.8423,167.1221 92.2488,166.8523 Q91.6553,166.5825 91.0244,166.5825 Q89.6797,166.5825 88.9949,167.6492 Q88.3101,168.7158 88.3101,170.8159 Q88.3101,172.9077 88.9949,173.9744 Q89.6797,175.041 91.0244,175.041 Q91.6553,175.041 92.2488,174.7712 Q92.8423,174.5015 93.4731,173.9204 Z "/><text fill="#000000" font-family="sans-serif" font-size="12" lengthAdjust="spacingAndGlyphs" textLength="47" x="104.5" y="175.5352">Concept</text><line style="stroke: #A80036; stroke-width: 1.5;" x1="76.5" x2="153.5" y1="187" y2="187"/><line style="stroke: #A80036; stroke-width: 1.5;" x1="76.5" x2="153.5" y1="195" y2="195"/><path d="M115,95.339 C115,107.9208 115,121.6941 115,134.3273 " fill="none" style="stroke: #A80036; stroke-width: 1.0;"/><polygon fill="none" points="122,134.7115,115,154.7115,108,134.7114,122,134.7115" style="stroke: #A80036; stroke-width: 1.0;"/></g></svg>