<?xml version="1.0" encoding="UTF-8" standalone="no"?><svg xmlns="http://www.w3.org/2000/svg" xmlns:xlink="http://www.w3.org/1999/xlink" contentScriptType="application/ecmascript" contentStyleType="text/css" height="168px" preserveAspectRatio="none" style="width:199px;height:168px;" version="1.1" viewBox="0 0 199 168" width="199px" zoomAndPan="magnify"><defs><filter height="300%" id="fasc9jk" width="300%" x="-1" y="-1"><feGaussianBlur result="blurOut" stdDeviation="2.0"/><feColorMatrix in="blurOut" result="blurOut2" type="matrix" values="0 0 0 0 0 0 0 0 0 0 0 0 0 0 0 0 0 0 .4 0"/><feOffset dx="4.0" dy="4.0" in="blurOut2" result="blurOut3"/><feBlend in="SourceGraphic" in2="blurOut3" mode="normal"/></filter></defs><g><!--class Wallet--><rect fill="#FEFECE" filter="url(#fasc9jk)" height="151.6406" style="stroke: #A80036; stroke-width: 1.5;" width="184" x="6" y="8"/><ellipse cx="76.75" cy="24" fill="#ADD1B2" rx="11" ry="11" style="stroke: #A80036; stroke-width: 1.0;"/><path d="M79.7231,29.6431 Q79.1421,29.9419 78.5029,30.0913 Q77.8638,30.2407 77.1582,30.2407 Q74.6514,30.2407 73.3315,28.5889 Q72.0117,26.937 72.0117,23.8159 Q72.0117,20.6865 73.3315,19.0347 Q74.6514,17.3828 77.1582,17.3828 Q77.8638,17.3828 78.5112,17.5322 Q79.1587,17.6816 79.7231,17.9805 L79.7231,20.7031 Q79.0923,20.1221 78.4988,19.8523 Q77.9053,19.5825 77.2744,19.5825 Q75.9297,19.5825 75.2449,20.6492 Q74.5601,21.7158 74.5601,23.8159 Q74.5601,25.9077 75.2449,26.9744 Q75.9297,28.041 77.2744,28.041 Q77.9053,28.041 78.4988,27.7712 Q79.0923,27.5015 79.7231,26.9204 Z "/><text fill="#000000" font-family="sans-serif" font-size="12" lengthAdjust="spacingAndGlyphs" textLength="34" x="97.25" y="28.5352">Wallet</text><line style="stroke: #A80036; stroke-width: 1.5;" x1="7" x2="189" y1="40" y2="40"/><line style="stroke: #A80036; stroke-width: 1.5;" x1="7" x2="189" y1="48" y2="48"/><ellipse cx="17" cy="59.9775" fill="#84BE84" rx="3" ry="3" style="stroke: #038048; stroke-width: 1.0;"/><text fill="#000000" font-family="sans-serif" font-size="11" lengthAdjust="spacingAndGlyphs" textLength="90" x="26" y="62.6348">Wallet getWallet()</text><ellipse cx="17" cy="72.9326" fill="#84BE84" rx="3" ry="3" style="stroke: #038048; stroke-width: 1.0;"/><text fill="#000000" font-family="sans-serif" font-size="11" lengthAdjust="spacingAndGlyphs" textLength="112" x="26" y="75.5898">void setWallet(Wallet)</text><ellipse cx="17" cy="85.8877" fill="#84BE84" rx="3" ry="3" style="stroke: #038048; stroke-width: 1.0;"/><text fill="#000000" font-family="sans-serif" font-size="11" lengthAdjust="spacingAndGlyphs" textLength="70" x="26" y="88.5449">Promise list()</text><ellipse cx="17" cy="98.8428" fill="#84BE84" rx="3" ry="3" style="stroke: #038048; stroke-width: 1.0;"/><text fill="#000000" font-family="sans-serif" font-size="11" lengthAdjust="spacingAndGlyphs" textLength="132" x="26" y="101.5">Promise contains(string)</text><ellipse cx="17" cy="111.7979" fill="#84BE84" rx="3" ry="3" style="stroke: #038048; stroke-width: 1.0;"/><text fill="#000000" font-family="sans-serif" font-size="11" lengthAdjust="spacingAndGlyphs" textLength="103" x="26" y="114.4551">Promise get(string)</text><ellipse cx="17" cy="124.7529" fill="#84BE84" rx="3" ry="3" style="stroke: #038048; stroke-width: 1.0;"/><text fill="#000000" font-family="sans-serif" font-size="11" lengthAdjust="spacingAndGlyphs" textLength="141" x="26" y="127.4102">Promise add(string,string)</text><ellipse cx="17" cy="137.708" fill="#84BE84" rx="3" ry="3" style="stroke: #038048; stroke-width: 1.0;"/><text fill="#000000" font-family="sans-serif" font-size="11" lengthAdjust="spacingAndGlyphs" textLength="158" x="26" y="140.3652">Promise update(string,string)</text><ellipse cx="17" cy="150.6631" fill="#84BE84" rx="3" ry="3" style="stroke: #038048; stroke-width: 1.0;"/><text fill="#000000" font-family="sans-serif" font-size="11" lengthAdjust="spacingAndGlyphs" textLength="126" x="26" y="153.3203">Promise remove(string)</text></g></svg>